<?xml version="1.0" encoding="iso-8859-1"?>
<!-- Uploaded to: SVG Repo, www.svgrepo.com, Generator: SVG Repo Mixer Tools -->
<svg height="800px" width="800px" version="1.1" id="Layer_1" xmlns="http://www.w3.org/2000/svg" xmlns:xlink="http://www.w3.org/1999/xlink" 
	 viewBox="0 0 512.001 512.001" xml:space="preserve">
<path style="fill:#FFB657;" d="M205.148,227.192c0,0-2.796,21.922-1.717,23.001c1.079,1.079,6.037,4.099,7.225,4.099
	c1.188,0,9.875-3.327,10.888-5.601c0.872-1.957,0.234-6.901-2.244-9.874c-2.845-3.415-2.478-9.414-2.478-9.414L205.148,227.192z"/>
<g>
	<path style="fill:#AD2201;" d="M278.811,465.392c-2.417-8.126-16.507-3.867-16.507-3.867s-10.109,30.893-11.918,36.491
		c-1.809,5.599-6.551,12.714,0.829,13.813c12.179,1.813,22.22-11.024,24.203-26.178c0.061-0.464,0.605-0.771,1.32-1.22l1.345,21.019
		h1.876v-24.684C281.027,478.108,281.247,473.584,278.811,465.392z"/>
	<path style="fill:#AD2201;" d="M236.89,440.664c-2.417-8.126-16.507-3.867-16.507-3.867s-10.109,28.887-11.919,34.486
		c-1.809,5.599-5.682,14.228,0.679,15.818c9.395,2.349,22.37-11.024,24.353-26.178c0.059-0.444,0.559-0.744,1.229-1.163
		l1.334,20.839h1.876v-24.312C239.092,453.668,239.403,449.115,236.89,440.664z"/>
</g>
<path style="fill:#FFB657;" d="M300.769,284.738c0.103-27.143-15.608-46.511-15.608-46.511l-71.764-6.352l6.987,204.921
	c0,0-3.851,4.933,4.38,5.766c7.815,0.791,11.331-3.124,11.331-3.124s13.236-53.912,4.675-95.943c0,0,7.484-26.267,12.823-50.372
	l2.996,0.699l5.718,167.703c0,0-3.851,6.418,4.38,7.249c7.814,0.79,11.36-3.819,11.36-3.819s13.207-54.701,4.646-96.732
	C282.69,368.223,300.692,305.051,300.769,284.738z"/>
<path style="fill:#891D00;" d="M222.828,87.934c0,0-18.455-2.103-15.719,54.663c2.752,57.091-3.222,85.499-3.222,85.499
	s1.238,4.222,8.488,4.222c7.25,0,8.456-2.715,8.456-2.715s2.646-66.265,2.967-69.478C225.053,147.572,236.778,91.068,222.828,87.934
	z"/>
<path style="fill:#D07400;" d="M213.433,243.808l-2.228,73.764c0,0,7.911,12.6,44.409,21.187c20.66,4.86,36.279,0.812,36.279,0.812
	s14.581-49.763,7.985-72.278c-5.773-19.706-14.671-31.643-14.671-31.643L213.433,243.808z"/>
<path style="fill:#FEDAAA;" d="M231.438,68.2c12.776,23.504,13.437,50.318,13.073,77.067c6.981-3.386,11.072-7.084,14.147-10.16
	c33.504-33.504,28.312-85.098,27.634-100.717c-0.341-7.842-3.037-11.101-9.226-15.929c-6.472-5.048-15.797-5.531-28.216-3.494
	c-10.254,1.683-21.533,9.346-25.652,19.188C218.397,45.623,226.075,58.333,231.438,68.2z"/>
<path style="fill:#891D00;" d="M211.18,242.27c0,0,5.501-27.519,6.032-59.564c0.192-11.615-11.046-25.121-11.046-39.168
	c0-14.63,5.418-35.952,16.661-55.605c0,0,43.77-11.988,77.585,40.827c0,0-17.699,23.076-19.703,62.542
	c-1.011,19.904,12.805,58.206,12.805,58.206C259.989,276.047,216.619,267.152,211.18,242.27z"/>
<path style="fill:#791900;" d="M212.374,232.318c0.179,0,0.342-0.006,0.508-0.011c0.406-2.641,0.85-5.735,1.297-9.203l2.706-30.398
	c0.156-3.265,0.269-6.604,0.326-9.999c0.15-9.11-6.729-19.384-9.704-30.171c0.08,2.478,0.145,4.9,0.194,7.259
	c2.731,6.394,5.376,12.714,6.773,16.405c3.641,9.629-5.468,55.657-5.486,55.746C209.939,232.176,211.055,232.318,212.374,232.318z"
	/>
<path style="fill:#FFB657;" d="M240.132,81.374c0,0-2.246,16.964-3.317,26.285c-0.793,6.895,11.39,11.339,20.703,8.412
	c9.312-2.929,13.074-9.815,13.074-9.815c-4.392-14.793-4.107-36.237-4.107-36.237L240.132,81.374z"/>
<path style="fill:#FEC377;" d="M219.225,50.873c0,0,2.23,32.289,10.423,38.046c8.193,5.756,36.681-3.41,48.233-22.868
	c11.551-19.457,7.152-59.867-18.479-63.831C229.464-2.41,217.469,21.977,219.225,50.873z"/>
<path style="fill:#FEDAAA;" d="M233.743,3.918c-34.11,14.942-12.342,63.505-12.342,63.505s-7.899-29.888,11.272-30.335
	c22.571-0.526,22.632-7.312,25.724-13.762c16.404,25.6,8.831,54.672,8.831,54.672s12.919-8.462,16.451-18.932
	s3.945-26.075,0.498-36.574C278.283,4.537,256.917-6.233,233.743,3.918z"/>
<path style="fill:#FFB657;" d="M288.121,276.394c0,0-2.866,12.491-2.525,14.803c0.341,2.313,2.837,4.609,2.837,4.609
	s-0.226,5.602,1.946,7.215c2.172,1.613,14.753-4.499,16.684-6.48c2.714-2.785-0.614-22.85-0.614-22.85
	S291.264,266.265,288.121,276.394z"/>
<path style="fill:#891D00;" d="M294.771,123.219c-5.492-1.45-13.39,2.082-14.021,17.881c-0.632,15.799,7.683,26.976,6.284,78.406
	c-1.251,45.938-0.324,55.587-0.324,55.587s7.14,12.53,22.075,1.07c0,0,0.101-73.048-0.055-82.366
	C307.755,135.762,300.77,124.802,294.771,123.219z"/>
<g>
	<path style="fill:#FFB657;" d="M220.385,436.798c0,0-7.202,20.482-7.406,22.774c-0.326,3.649,5.732,5.921,8.006,3.649
		c2.654-2.655,15.11-23.782,15.11-23.782L220.385,436.798z"/>
	<path style="fill:#FFB657;" d="M262.334,461.526c0,0-7.202,20.482-7.407,22.774c-0.326,3.649,5.733,5.921,8.006,3.649
		c2.654-2.654,15.11-22.993,15.11-22.993L262.334,461.526z"/>
</g>
</svg>