<?xml version="1.0" encoding="iso-8859-1"?>
<!-- Uploaded to: SVG Repo, www.svgrepo.com, Generator: SVG Repo Mixer Tools -->
<svg height="800px" width="800px" version="1.1" id="Layer_1" xmlns="http://www.w3.org/2000/svg" xmlns:xlink="http://www.w3.org/1999/xlink" 
	 viewBox="0 0 511.999 511.999" xml:space="preserve">
<path style="fill:#FFB657;" d="M206.926,227.125c0,0-2.797,21.928-1.718,23.007c1.079,1.079,6.039,4.1,7.227,4.1
	s9.877-3.328,10.891-5.602c0.872-1.958,0.234-6.903-2.244-9.876c-2.846-3.415-2.478-9.417-2.478-9.417L206.926,227.125z"/>
<g>
	<path style="fill:#CD2A01;" d="M224.421,450.485c0,0-27.99,28.077-22.272,31.675c7.963,5.01,40.332-15.666,40.332-17.326
		c0-1.659-2.292-17.775-2.292-17.775L224.421,450.485z"/>
	<path style="fill:#CD2A01;" d="M267.402,476.234c0,0-27.076,30.095-19.715,35.027c7.817,5.236,37.775-19.017,37.775-20.676
		c0-1.659-2.292-17.775-2.292-17.775L267.402,476.234z"/>
</g>
<path style="fill:#1D81CD;" d="M305.925,292.464c0.107-27.915-16.052-47.835-16.052-47.835l-73.805-6.532l7.185,210.75
	c0,0-0.437,5.45,8.028,6.305c8.037,0.813,9.96-4.566,9.96-4.566s11.782-54.468,2.978-97.695c0,0,5.808-20.382,10.932-41.985
	l5.692,1.327l5.525,162.045c0,0-0.437,6.975,8.028,7.831c8.036,0.813,9.989-5.279,9.989-5.279s11.752-55.28,2.947-98.507
	C287.332,378.323,305.845,313.353,305.925,292.464z"/>
<g>
	<path style="fill:#E0E0E2;" d="M224.609,87.832c0,0-18.459-2.103-15.723,54.677c2.753,57.106-3.223,85.521-3.223,85.521
		s1.238,4.223,8.49,4.223c7.252,0,8.459-2.715,8.459-2.715s2.646-66.282,2.968-69.496
		C226.835,147.485,238.563,90.966,224.609,87.832z"/>
	<path style="fill:#E0E0E2;" d="M212.958,242.207c0,0,5.503-27.526,6.034-59.579c0.192-11.618-11.049-25.127-11.049-39.179
		c0-14.633,5.419-35.962,16.665-55.619c0,0,43.78-11.991,77.605,40.838c0,0-17.704,23.083-19.708,62.558
		c-1.011,19.91,12.808,58.221,12.808,58.221C261.779,275.993,218.4,267.095,212.958,242.207z"/>
</g>
<path style="fill:#D8D8DA;" d="M214.154,232.253c0.179,0,0.342-0.006,0.508-0.012c0.405-2.64,0.85-5.736,1.298-9.205l2.708-30.405
	c0.156-3.266,0.27-6.606,0.326-10.002c0.15-9.113-6.731-19.389-9.706-30.179c0.08,2.478,0.145,4.901,0.194,7.261
	c2.732,6.395,5.378,12.716,6.774,16.409c3.642,9.632-5.469,55.672-5.487,55.76C211.718,232.111,212.834,232.253,214.154,232.253z"/>
<path style="fill:#FFB657;" d="M241.919,81.27c0,0-2.246,16.968-3.318,26.292c-0.793,6.897,11.393,11.342,20.709,8.414
	c9.314-2.93,13.078-9.818,13.078-9.818c-4.393-14.796-4.108-36.246-4.108-36.246L241.919,81.27z"/>
<path style="fill:#FEC377;" d="M221.006,50.761c0,0,2.231,32.298,10.426,38.055c8.195,5.758,36.691-3.411,48.245-22.874
	s7.154-59.882-18.483-63.847C231.247-2.535,219.25,21.857,221.006,50.761z"/>
<g>
	<path style="fill:#2E2E30;" d="M222.542,57.808c0.287,7.297,2.822,20.805,3.644,27.137c-6.301-11.462-10.507-29.725-10.709-42.804
		c-0.202-13.079,4.702-27.98,13.016-34.205c8.253-6.179,16.284-8.314,26.586-7.883c7.548,0.316,18.576,6.015,23.623,12.018
		c4.172,4.963,2.333,9.002-5.34,12.929c-7.406,3.792-17.886,5.515-24.064,5.326C234.152,29.867,221.946,42.666,222.542,57.808z"/>
	<path style="fill:#2E2E30;" d="M265.587,48.355c4.496,8.942,3.325,39.589,1.686,42.162c4.481-5.537,12.937-15.984,16.315-22.255
		c0.979-1.818,1.914-3.672,2.529-5.643c0.787-2.524,1.032-5.18,1.265-7.814c0.544-6.155,1.05-12.349,0.491-18.503
		c-0.558-6.154-2.237-12.319-5.73-17.416c-0.679-0.99-1.466-1.972-2.558-2.473c-2.036-0.936-4.402,0.057-6.376,1.118
		c-4.359,2.34-12.926,6.094-14.312,11.437C257.257,35.295,262.923,43.057,265.587,48.355z"/>
</g>
<path style="fill:#FFB657;" d="M289.92,276.34c0,0-2.867,12.495-2.525,14.807c0.341,2.313,2.838,4.612,2.838,4.612
	s-0.226,5.603,1.946,7.216c2.172,1.613,14.757-4.5,16.688-6.482c2.714-2.785-0.614-22.856-0.614-22.856
	S293.063,266.208,289.92,276.34z"/>
<path style="fill:#E0E0E2;" d="M296.571,123.126c-5.493-1.45-13.393,2.082-14.024,17.886c-0.632,15.803,7.685,26.983,6.285,78.426
	c-1.252,45.95-0.324,55.602-0.324,55.602s7.142,12.533,22.081,1.07c0,0,0.101-73.066-0.055-82.387
	C309.557,135.671,302.571,124.709,296.571,123.126z"/>
</svg>