<?xml version="1.0" encoding="iso-8859-1"?>
<!-- Uploaded to: SVG Repo, www.svgrepo.com, Generator: SVG Repo Mixer Tools -->
<svg height="800px" width="800px" version="1.1" id="Layer_1" xmlns="http://www.w3.org/2000/svg" xmlns:xlink="http://www.w3.org/1999/xlink" 
	 viewBox="0 0 511.999 511.999" xml:space="preserve">
<path style="fill:#A66206;" d="M198.52,222.117c0,0-2.069,19.862-0.835,21.096c1.234,1.234,6.905,4.687,8.263,4.687
	s11.293-3.805,12.452-6.406c0.997-2.238,0.267-7.893-2.566-11.292c-3.254-3.904-2.834-10.767-2.834-10.767L198.52,222.117z"/>
<g>
	<path style="fill:#1D1D1F;" d="M221.462,444.093c0,0-33.612,32.838-26.32,37.425c10.156,6.389,51.43-19.977,51.43-22.093
		c0-2.116-2.923-22.667-2.923-22.667L221.462,444.093z"/>
	<path style="fill:#1D1D1F;" d="M267.022,469.358c0,0-32.446,35.411-23.059,41.699c9.968,6.677,48.17-24.25,48.17-26.366
		s-2.923-22.666-2.923-22.666L267.022,469.358z"/>
</g>
<path style="fill:#1A6FB0;" d="M214.258,240.495l-0.745,207.186c0,0-0.477,6.077,15.723,6.077s17.057-7.75,17.057-7.75
	l4.316-150.088l0.787,0.113l8.481,177.452c0,0-1.002,4.756,15.199,4.756c16.201,0,17.057-7.75,17.057-7.75l1.566-222.982
	L214.258,240.495z"/>
<path style="fill:#A66206;" d="M225.683,83.27c-2.379-0.252-16.462,2.487-19.182,24.096c-0.98,7.787-2.9,35.384-3.917,61.387
	c-1.165,29.794-4.064,53.364-4.064,53.364c0,6.8,11.968,11.89,16.955,6.902c0.747-0.747,9.263-36.596,9.613-67.017
	C225.536,123.095,242.245,85.023,225.683,83.27z"/>
<g>
	<path style="fill:#5B2478;" d="M225.592,83.27c-2.408-0.255-16.956,1.799-19.42,24.395c-0.861,7.899-2.936,35.824-3.965,62.15
		c-0.005,0.12-0.009,0.237-0.015,0.357c6.199,4.593,14.708,5.992,22.352,3.872c0.246-3.72,0.405-7.43,0.447-11.064
		C225.445,123.589,242.36,85.045,225.592,83.27z"/>
	<path style="fill:#5B2478;" d="M211.748,238.966c0,0-2.102-34.85-1.57-66.962c0.446-26.947-2.239-53.55-2.117-60.256
		c0.303-16.622,10.762-28.389,16.876-28.493c0,0,42.776,3.521,78.503,31.31c0,0-3.757,139.243-8.509,140.856
		C255.749,268.714,213.334,246.222,211.748,238.966z"/>
</g>
<path style="fill:#51216D;" d="M292.981,209.747c-0.503-25.462-1.809-40.717-2.838-51.758l-1.801,99.327
	c2.201-0.528,4.401-1.153,6.59-1.895c1.094-0.371,2.136-8.048,3.09-19.631l-2.357-25.498
	C294.627,210.111,293.712,209.924,292.981,209.747z"/>
<path style="fill:#884D01;" d="M241.457,75.329c0,0-2.251,17-3.325,26.341c-0.795,6.909,5.905,14.936,15.472,12.895
	c13.757-2.935,18.377-14.302,18.377-14.302c-4.402-14.824-4.116-36.313-4.116-36.313L241.457,75.329z"/>
<path style="fill:#A66206;" d="M219.229,47.391c0,0,2.13,31.935,9.809,37.638c7.678,5.704,31.745,0.235,45.13-22.552
	c11.167-19.01,6.507-56.298-17.496-60.251C228.634-2.391,217.547,18.812,219.229,47.391z"/>
<path style="fill:#884D01;" d="M256.68,0.541c-23.111-3.279-35.957,8.469-37.643,32.191c19.723,3.71,31.347,5.539,53.549-2.428
	c-5.508,2.448-10.654,4.902-15.655,7.56c0.983,1.376,1.789,3.017,2.458,4.792c5.46-2.691,11.024-5.176,17.376-6.083
	c-6.186,1.856-11.632,4.463-16.787,7.785c2.854,8.991,2.697,20.259,3.687,19.231c2.254-11.898,2.15-18.395,8.037-19.379
	c6.574-1.099,3.876,9.09,3.215,15.185C287.235,39.757,277.65,3.516,256.68,0.541z"/>
<g>
	<path style="fill:#A66206;" d="M294.391,269.503c0,0-0.371,12.149-0.029,14.467c0.342,2.317,2.843,4.619,2.843,4.619
		s-0.226,5.614,1.95,7.23c2.175,1.616,14.784-4.508,16.719-6.494c2.72-2.791-0.615-22.898-0.615-22.898
		S297.54,259.353,294.391,269.503z"/>
	<path style="fill:#A66206;" d="M303.441,114.565c0,0-13.303,3.157-13.936,18.99c-0.633,15.833,3.495,30.516,4.194,82.069
		c0.518,38.269,0.518,55.784,0.518,55.784s6.075,6.503,21.04-4.982c0,0,2.444-70.725,2.287-80.062
		C316.566,128.205,313.961,120.907,303.441,114.565z"/>
</g>
<path style="fill:#5B2478;" d="M317.794,206.442c0.207-7.988,0.032-15.333-0.007-17.7c-1.01-60.085-1.318-67.625-14.57-74.177
	c0,0-13.743,3.262-14.398,19.618c-0.628,15.701,3.211,27.309,4.163,75.563C299.109,211.225,317.893,213.495,317.794,206.442z"/>
<path style="fill:#A66206;" d="M264.863,60.549c0,0,2.507-17.609,7.723-17.843c3.679-0.164,5.28,7.436,2.577,13.28
	c-2.704,5.844-10.3,11.293-10.3,11.293V60.549L264.863,60.549z"/>
</svg>