<?xml version="1.0" encoding="iso-8859-1"?>
<!-- Uploaded to: SVG Repo, www.svgrepo.com, Generator: SVG Repo Mixer Tools -->
<svg height="800px" width="800px" version="1.1" id="Layer_1" xmlns="http://www.w3.org/2000/svg" xmlns:xlink="http://www.w3.org/1999/xlink" 
	 viewBox="0 0 512 512" xml:space="preserve">
<polygon style="fill:#3E3D43;" points="216.729,85.611 257.583,77.244 214.46,40.137 "/>
<path style="fill:#FFB657;" d="M205.131,227.092c0,0-2.797,21.93-1.718,23.009c1.079,1.079,6.039,4.1,7.229,4.1
	c1.188,0,9.878-3.328,10.892-5.603c0.872-1.958,0.234-6.904-2.244-9.877c-2.846-3.416-2.478-9.418-2.478-9.418L205.131,227.092z"/>
<path style="fill:#2E2E30;" d="M278.819,465.375c-2.418-8.129-16.512-3.868-16.512-3.868s-10.112,30.903-11.922,36.504
	c-1.81,5.601-6.554,12.718,0.83,13.818c12.183,1.814,22.228-11.028,24.211-26.187c0.061-0.464,0.604-0.771,1.321-1.22l1.346,21.026
	h1.877v-24.694C281.036,478.097,281.255,473.569,278.819,465.375z"/>
<path style="fill:#FFB657;" d="M255.317,256.515l6.989,204.992c0,0-3.852,6.42,4.381,7.251c7.818,0.79,11.364-3.82,11.364-3.82
	s13.212-54.719,4.648-96.766c0,0,18.008-63.193,18.086-83.513c0.103-27.152-15.614-46.528-15.614-46.528L255.317,256.515z"/>
<path style="fill:#2E2E30;" d="M236.883,440.639c-2.418-8.129-16.512-3.868-16.512-3.868s-10.112,28.896-11.922,34.498
	c-1.81,5.601-5.684,14.233,0.679,15.824c9.399,2.35,22.378-11.028,24.361-26.187c0.059-0.444,0.559-0.744,1.23-1.163l1.334,20.846
	h1.877v-24.32C239.086,453.648,239.397,449.092,236.883,440.639z"/>
<path style="fill:#FFB657;" d="M213.383,231.778l6.989,204.992c0,0-3.852,4.935,4.381,5.768c7.817,0.791,11.335-3.125,11.335-3.125
	s13.241-53.93,4.677-95.977c0,0,18.008-63.195,18.086-83.513c0.103-27.152-15.614-46.528-15.614-46.528L213.383,231.778z"/>
<path style="fill:#1D1D1F;" d="M212.534,242.177l-1.344,75.328c0,0,7.914,12.604,44.424,21.194
	c20.667,4.862,36.292,0.812,36.292,0.812s14.587-49.78,7.988-72.303c-5.775-19.713-14.676-31.654-14.676-31.654L212.534,242.177z"/>
<path style="fill:#FFB657;" d="M288.132,276.311c0,0-2.867,12.496-2.527,14.808c0.341,2.313,2.838,4.612,2.838,4.612
	s-0.226,5.604,1.947,7.217c2.172,1.614,14.758-4.5,16.69-6.482c2.715-2.786-0.614-22.858-0.614-22.858
	S291.276,266.18,288.132,276.311z"/>
<path style="fill:#2E2E30;" d="M308.747,193.687c-0.804-47.793-5.68-63.669-10.728-68.673
	c-33.459-48.651-75.204-37.228-75.204-37.228s-16.511-1.871-15.986,45.971c-0.448,3.443-0.681,6.69-0.681,9.654
	c0,3.033,0.526,6.042,1.345,9.011c1.654,50.455-3.626,75.575-3.626,75.575s1.238,4.223,8.491,4.223c0.179,0,0.336-0.008,0.508-0.012
	c-0.962,6.261-1.702,9.968-1.702,9.968c5.062,23.16,42.975,32.456,75.239,12.251c-0.092,16.313,0.317,20.583,0.317,20.583
	s7.143,12.534,22.083,1.07C308.803,276.082,308.905,203.01,308.747,193.687z M280.716,191.191c0.46-9.049,1.749-17.224,3.455-24.47
	c1.832,11.208,3.574,26.881,2.871,52.683c-0.083,3.047-0.156,5.922-0.22,8.658C283.466,215.938,280.207,201.228,280.716,191.191z"/>
<path style="fill:#1D1D1F;" d="M212.359,232.221c0.179,0,0.342-0.006,0.508-0.012c0.405-2.64,0.851-5.736,1.298-9.205l2.708-30.408
	c0.156-3.267,0.27-6.607,0.326-10.003c0.15-9.113-6.731-19.391-9.707-30.181c0.08,2.478,0.145,4.902,0.194,7.262
	c2.732,6.396,5.378,12.718,6.775,16.411c3.642,9.633-5.47,55.677-5.488,55.765C209.923,232.078,211.039,232.221,212.359,232.221z"/>
<path style="fill:#FF3E61;" d="M239.639,98.2v-2.083c0,0-18.493,41.588-15.368,71.802l-0.356,91.158
	c4.453,2.736,9.808,4.666,15.723,5.672l-1.825-32.829c-1.125-20.237,0.65-40.531,5.272-60.266l0,0l27.513-65.538L239.639,98.2z"/>
<path style="fill:#3E3D43;" d="M239.639,96.117c0,0-18.493,41.588-15.368,71.802l-12.242-34.295l10.245,2.952l-8.892-11.726
	L239.639,96.117z"/>
<path style="fill:#FFB657;" d="M240.127,81.224c0,0-2.246,16.97-3.319,26.294c-0.793,6.897,11.394,11.343,20.711,8.414
	c9.315-2.929,13.079-9.819,13.079-9.819c-4.394-14.798-4.108-36.249-4.108-36.249L240.127,81.224z"/>
<path style="fill:#FEC377;" d="M219.212,50.713c0,0,2.231,32.3,10.427,38.059c8.196,5.758,36.694-3.412,48.25-22.876
	s7.154-59.887-18.485-63.853C229.454-2.588,217.456,21.807,219.212,50.713z"/>
<g>
	<path style="fill:#FFB657;" d="M220.371,436.771c0,0-7.204,20.489-7.408,22.782c-0.326,3.65,5.734,5.923,8.009,3.65
		c2.655-2.655,15.115-23.79,15.115-23.79L220.371,436.771z"/>
	<path style="fill:#FFB657;" d="M262.336,461.508c0,0-7.204,20.489-7.409,22.782c-0.326,3.65,5.735,5.923,8.009,3.65
		c2.655-2.655,15.115-23.001,15.115-23.001L262.336,461.508z"/>
</g>
<g>
	<path style="fill:#3E3D43;" d="M272.105,8.184c0,0-15.189-14.775-38.37-4.62c-34.122,14.947-17.007,82.047-17.007,82.047
		s-1.845-38.28,16.961-42.063c17.783-3.578,23.271-16.002,24.709-20.57c-0.985,4.351-2.615,16.315,5.812,26.956
		c7.62,9.622,1.128,41.841,1.128,41.841s22.227-14.648,25.699-21.91C294.511,62.603,289.967,10.046,272.105,8.184z"/>
	<polygon style="fill:#3E3D43;" points="270.598,106.114 243.085,171.653 261.546,160.973 253.908,153.766 269.713,152.554 	"/>
</g>
</svg>