<?xml version="1.0" encoding="iso-8859-1"?>
<!-- Uploaded to: SVG Repo, www.svgrepo.com, Generator: SVG Repo Mixer Tools -->
<svg height="800px" width="800px" version="1.1" id="Layer_1" xmlns="http://www.w3.org/2000/svg" xmlns:xlink="http://www.w3.org/1999/xlink" 
	 viewBox="0 0 512.001 512.001" xml:space="preserve">
<g>
	<path style="fill:#CD2A01;" d="M278.851,465.392c-2.417-8.126-16.507-3.867-16.507-3.867s-10.109,30.893-11.918,36.491
		c-1.809,5.599-6.551,12.714,0.829,13.813c12.179,1.813,22.221-11.024,24.203-26.178c0.061-0.464,0.604-0.771,1.32-1.22l1.345,21.02
		H280v-24.685C281.067,478.108,281.287,473.584,278.851,465.392z"/>
	<path style="fill:#CD2A01;" d="M236.931,440.664c-2.417-8.126-16.507-3.867-16.507-3.867s-10.109,28.887-11.918,34.486
		c-1.809,5.599-5.682,14.228,0.679,15.818c9.395,2.348,22.37-11.024,24.353-26.178c0.059-0.444,0.559-0.744,1.229-1.163
		l1.334,20.839h1.876v-24.312C239.133,453.668,239.444,449.115,236.931,440.664z"/>
</g>
<path style="fill:#2E2E30;" d="M250.52,151.637c0,0,29.196-13.231,35.55-92.576c0.765-9.549,1.098-17.234,0.578-23.892
	c-1.211-15.522-38.965-46.299-63.226-9.199c-5.393,8.246-1.791,19.193-2.626,28.608C214.287,127.961,250.52,151.637,250.52,151.637z
	"/>
<g>
	<path style="fill:#A66206;" d="M205.188,227.192c0,0-2.796,21.922-1.717,23.001c1.079,1.079,6.037,4.099,7.225,4.099
		s9.875-3.327,10.888-5.601c0.872-1.957,0.234-6.901-2.244-9.874c-2.845-3.415-2.478-9.414-2.478-9.414L205.188,227.192z"/>
	<path style="fill:#A66206;" d="M300.81,284.738c0.103-27.143-15.608-46.511-15.608-46.511l-71.764-6.352l6.987,204.921
		c0,0-3.851,4.933,4.38,5.766c7.814,0.791,11.331-3.124,11.331-3.124s13.236-53.911,4.675-95.943c0,0,7.484-26.267,12.823-50.371
		l2.996,0.699l5.718,167.703c0,0-3.851,6.417,4.38,7.249c7.815,0.79,11.359-3.819,11.359-3.819s13.208-54.7,4.646-96.732
		C282.73,368.223,300.731,305.051,300.81,284.738z"/>
	<path style="fill:#A66206;" d="M222.867,87.934c0,0-18.455-2.103-15.719,54.663c2.752,57.091-1.961,84.595-1.961,84.595
		s-0.024,5.128,7.226,5.128c3.021,0,4.449-2.916,4.449-2.916s6.654-66.064,6.974-69.276
		C225.093,147.572,236.818,91.068,222.867,87.934z"/>
</g>
<g>
	<path style="fill:#CD2A01;" d="M213.474,243.808l-2.228,73.764c0,0,7.911,12.6,44.409,21.187
		c20.659,4.86,36.279,0.812,36.279,0.812s14.582-49.763,7.985-72.278c-5.773-19.706-14.671-31.643-14.671-31.643L213.474,243.808z"
		/>
	<path style="fill:#CD2A01;" d="M213.474,243.808c0,0,3.247-29.056,3.778-61.101c0.192-11.615-11.046-25.121-11.046-39.168
		c0-14.63,5.418-35.952,16.661-55.605c0,0,43.77-11.988,77.585,40.827c0,0-17.699,23.076-19.703,62.542
		c-1.011,19.904,9.615,52.68,9.615,52.68C256.838,270.52,218.913,268.689,213.474,243.808z"/>
</g>
<path style="fill:#884D01;" d="M240.172,81.374c0,0-1.203,17.144-3.317,26.285c-2.924,12.642,3.258,19.574,12.57,16.647
	c9.312-2.928,21.208-18.05,21.208-18.05c-4.392-14.793-4.107-36.237-4.107-36.237L240.172,81.374z"/>
<path style="fill:#A66206;" d="M219.266,50.873c0,0,2.23,32.289,10.423,38.046c8.193,5.756,36.681-3.41,48.233-22.868
	c11.551-19.457,7.152-59.867-18.479-63.831C229.504-2.41,217.509,21.977,219.266,50.873z"/>
<path style="fill:#2E2E30;" d="M233.783,3.918c-34.11,14.942-13.09,82.019-13.09,82.019s-3.666-33.531,8.946-47.975
	c9.507-10.888,20.881-15.929,28.798-14.636c-0.985,4.349-2.614,16.309,5.81,26.947c8.751,11.051,1.064,28.763-8.398,39.211
	c3.655-1.873,6.919-4.431,9.942-7.209c8.136-7.477,14.729-16.778,18.261-27.248c3.533-10.47,3.614-22.036,0.167-32.535
	C278.323,4.537,256.956-6.233,233.783,3.918z"/>
<g>
	<path style="fill:#A66206;" d="M288.161,276.394c0,0-2.866,12.491-2.526,14.803c0.341,2.313,2.837,4.609,2.837,4.609
		s-0.226,5.602,1.946,7.215s14.753-4.499,16.684-6.48c2.714-2.785-0.614-22.85-0.614-22.85S291.303,266.265,288.161,276.394z"/>
	<path style="fill:#A66206;" d="M294.811,123.219c-5.492-1.45-13.389,2.082-14.021,17.881c-0.632,15.799,6.284,26.957,6.284,78.406
		c0,16.145,1.087,56.887,1.087,56.887s3.392,8.759,18.327-2.701c0,0,2.439-70.576,2.282-79.894
		C307.794,135.762,300.81,124.802,294.811,123.219z"/>
	<path style="fill:#A66206;" d="M220.424,436.798c0,0-7.202,20.482-7.406,22.774c-0.326,3.649,5.732,5.921,8.006,3.649
		c2.654-2.655,15.11-23.782,15.11-23.782L220.424,436.798z"/>
	<path style="fill:#A66206;" d="M262.374,461.526c0,0-7.202,20.482-7.407,22.774c-0.326,3.648,5.733,5.921,8.006,3.648
		c2.654-2.654,15.11-22.993,15.11-22.993L262.374,461.526z"/>
</g>
</svg>