<?xml version="1.0" encoding="iso-8859-1"?>
<!-- Uploaded to: SVG Repo, www.svgrepo.com, Generator: SVG Repo Mixer Tools -->
<svg height="800px" width="800px" version="1.1" id="Layer_1" xmlns="http://www.w3.org/2000/svg" xmlns:xlink="http://www.w3.org/1999/xlink" 
	 viewBox="0 0 512.002 512.002" xml:space="preserve">
<g>
	<path style="fill:#971052;" d="M224.375,450.484c0,0-27.992,28.079-22.273,31.677c7.964,5.01,40.335-15.667,40.335-17.326
		c0-1.659-2.292-17.777-2.292-17.777L224.375,450.484z"/>
	<path style="fill:#971052;" d="M267.359,476.234c0,0-27.077,30.097-19.716,35.029c7.817,5.237,37.778-19.019,37.778-20.677
		c0-1.659-2.292-17.777-2.292-17.777L267.359,476.234z"/>
</g>
<path id="SVGCleanerId_0" style="fill:#FFB657;" d="M302.68,284.36c0.104-27.218-15.651-46.64-15.651-46.64l-71.963-6.37
	l9.362,218.601c0,0-0.999,5.038,7.255,5.873c7.837,0.792,8.499-3.225,8.499-3.225s10.917-67.171,2.331-109.32
	c0,0,7.505-26.339,12.858-50.512l3.004,0.7l8.091,183.287c0,0-0.999,6.526,7.255,7.361c7.837,0.792,8.528-3.92,8.528-3.92
	s10.888-69.971,2.302-112.119C284.551,368.077,302.602,304.729,302.68,284.36z"/>
<g>
	<path id="SVGCleanerId_0_1_" style="fill:#FFB657;" d="M302.68,284.36c0.104-27.218-15.651-46.64-15.651-46.64l-71.963-6.37
		l9.362,218.601c0,0-0.999,5.038,7.255,5.873c7.837,0.792,8.499-3.225,8.499-3.225s10.917-67.171,2.331-109.32
		c0,0,7.505-26.339,12.858-50.512l3.004,0.7l8.091,183.287c0,0-0.999,6.526,7.255,7.361c7.837,0.792,8.528-3.92,8.528-3.92
		s10.888-69.971,2.302-112.119C284.551,368.077,302.602,304.729,302.68,284.36z"/>
</g>
<g>
	<path style="fill:#E0E0E2;" d="M223.472,439.866l0.43,10.055c-0.051,0.348-0.199,1.889,0.924,3.405
		c1.239,1.674,3.528,2.69,6.804,3.021c0.696,0.071,1.367,0.107,1.993,0.107c6.381,0,7.05-3.613,7.076-3.768
		c0.024-0.146,0.55-4.286,1.27-9.767C235.267,444.014,228.562,443.557,223.472,439.866z"/>
	<path style="fill:#E0E0E2;" d="M265.55,467.678l0.398,9.001c-0.017,0.11-0.391,2.708,1.347,4.954
		c1.318,1.701,3.462,2.713,6.373,3.006c0.606,0.062,1.193,0.093,1.748,0.093c0,0,0,0,0.001,0c6.619,0,7.343-4.414,7.35-4.453
		c0.024-0.158,0.581-3.796,1.333-9.805C277.386,471.348,270.407,470.988,265.55,467.678z"/>
</g>
<path style="fill:#FFB657;" d="M206.794,227.701c0,0-2.803,21.983-1.722,23.065c1.081,1.081,6.054,4.111,7.245,4.111
	s9.902-3.336,10.918-5.616c0.875-1.962,0.235-6.92-2.25-9.901c-2.854-3.424-2.485-9.441-2.485-9.441L206.794,227.701z"/>
<path style="fill:#5AAAE7;" d="M289.469,236.789l-1.739-2.143l-70.805,1.097l-2.009,84.491c10.575,5.021,23.977,5.521,35.893,5.569
	c1.512-5.765,3.195-12.37,4.835-19.189l0.809,23.727c12.783,5.768,27.407,5.979,40.986,2.073
	c4.284-17.717,8.347-37.089,8.384-46.994C305.93,257.403,290.142,237.617,289.469,236.789z"/>
<path style="fill:#FFB657;" d="M224.522,88.056c0,0-18.506-2.109-15.763,54.815c2.76,57.25-1.965,84.83-1.965,84.83
	s-0.024,5.141,7.246,5.141c3.029,0,4.462-2.925,4.462-2.925s6.672-66.247,6.994-69.468
	C226.753,147.861,238.511,91.199,224.522,88.056z"/>
<path style="fill:#E5197C;" d="M215.101,244.364c0,0,3.257-29.137,3.789-61.271c0.193-11.647-11.077-25.191-11.077-39.277
	c0-14.67,5.433-36.053,16.708-55.76c0,0,43.89-12.021,77.8,40.941c0,0-17.748,23.14-19.758,62.715
	c-1.014,19.96,9.641,52.826,9.641,52.826C258.587,271.151,220.556,269.314,215.101,244.364z"/>
<path style="fill:#554432;" d="M226.015,110.389c0,0-2.928-14.669,17.108-21.298c20.037-6.629,29.296-4.539,29.296-4.539
	l1.777-63.544c0,0-24.44-2.444-29.328-1.397c-4.888,1.047-25.816,12.569-25.816,15.013
	C219.053,37.069,226.015,110.389,226.015,110.389z"/>
<path style="fill:#FFB657;" d="M241.874,81.478c0,0-1.207,17.191-3.327,26.358c-2.932,12.678,3.267,19.629,12.605,16.692
	c9.338-2.936,21.267-18.101,21.267-18.101c-4.405-14.834-4.119-36.337-4.119-36.337L241.874,81.478z"/>
<path style="fill:#FEC377;" d="M220.91,50.893c0,0,2.236,32.379,10.453,38.152c8.216,5.773,36.784-3.42,48.367-22.931
	c11.583-19.511,7.171-60.033-18.53-64.008C231.177-2.539,219.148,21.916,220.91,50.893z"/>
<g>
	<path style="fill:#5E4C36;" d="M222.449,57.957c0.288,7.315,7.035,60.892,7.859,67.239c-3.712-6.754-6.803-11.644-8.677-20.67
		c-1.313-6.33-6.182-56.872-6.265-62.277c-0.202-13.112,1.047-25.17,13.05-34.292c8.23-6.255,16.325-8.335,26.653-7.902
		c7.567,0.317,15.548,2.792,20.7,8.732c5.19,5.983,0.971,12.996-6.721,16.933c-7.426,3.801-12.399,4.874-18.592,4.685
		C235.27,29.945,221.851,42.777,222.449,57.957z"/>
	<path style="fill:#5E4C36;" d="M265.603,48.48c4.508,8.965,1.682,76.263,0.04,78.842c4.492-5.551,12.969-16.024,16.357-22.311
		c0.982-1.822,1.919-3.681,2.535-5.657c0.789-2.531,2.685-41.767,2.919-44.406c0.545-6.17,1.052-12.381,0.493-18.55
		c-0.559-6.169-2.264-12.114-4.847-17.744c-0.68-1.484-3.096-5.171-4.19-5.674c-2.042-0.938-3.534,0.858-5.513,1.92
		c-4.37,2.346-13.11,8.789-14.499,14.145C257.252,35.388,262.933,43.169,265.603,48.48z"/>
</g>
<g>
	<path style="fill:#FFB657;" d="M289.997,277.04c0,0-2.873,12.526-2.532,14.845c0.342,2.319,2.845,4.623,2.845,4.623
		s-0.226,5.617,1.951,7.235c2.178,1.617,14.793-4.511,16.731-6.498c2.721-2.792-0.616-22.913-0.616-22.913
		S293.148,266.883,289.997,277.04z"/>
	<path style="fill:#FFB657;" d="M296.665,123.44c-5.508-1.453-13.427,2.088-14.06,17.93c-0.633,15.844,6.301,27.031,6.301,78.624
		c0,16.189,1.091,57.045,1.091,57.045s3.401,8.783,18.378-2.708c0,0,2.445-70.772,2.288-80.116
		C309.684,136.017,302.68,125.028,296.665,123.44z"/>
</g>
</svg>