<?xml version="1.0" encoding="iso-8859-1"?>
<!-- Uploaded to: SVG Repo, www.svgrepo.com, Generator: SVG Repo Mixer Tools -->
<svg height="800px" width="800px" version="1.1" id="Layer_1" xmlns="http://www.w3.org/2000/svg" xmlns:xlink="http://www.w3.org/1999/xlink" 
	 viewBox="0 0 512 512" xml:space="preserve">
<path style="fill:#FFB657;" d="M198.472,221.212c0,0-2.075,19.924-0.838,21.161c1.237,1.237,6.927,4.702,8.289,4.702
	c1.363,0,11.328-3.817,12.491-6.426c1-2.245,0.269-7.917-2.574-11.328c-3.264-3.917-2.842-10.8-2.842-10.8L198.472,221.212z"/>
<g>
	<path style="fill:#884D01;" d="M221.485,443.881c0,0-33.717,32.94-26.402,37.542c10.187,6.408,51.59-20.04,51.59-22.162
		c0-2.122-2.932-22.738-2.932-22.738L221.485,443.881z"/>
	<path style="fill:#884D01;" d="M267.187,469.225c0,0-32.547,35.521-23.132,41.829c9.998,6.699,48.321-24.326,48.321-26.448
		s-2.932-22.738-2.932-22.738L267.187,469.225z"/>
</g>
<path style="fill:#1D1D1F;" d="M214.259,239.647l-0.747,207.832c0,0-0.479,6.096,15.773,6.096s17.11-7.774,17.11-7.774l4.33-150.556
	l0.79,0.113l8.507,178.006c0,0-1.005,4.771,15.246,4.771c16.251,0,17.11-7.774,17.11-7.774l1.572-223.678L214.259,239.647z"/>
<g>
	<path style="fill:#1A6FB0;" d="M225.719,81.931c-2.387-0.253-16.513,2.494-19.242,24.171c-0.983,7.811-5.787,35.495-6.806,61.579
		c-1.168,29.887-3.898,51.805-3.898,51.805c0,6.821,14.705,13.651,19.706,8.648c0.749-0.749,9.292-36.71,9.644-67.226
		C225.574,121.881,242.335,83.69,225.719,81.931z"/>
	<path style="fill:#1A6FB0;" d="M211.742,238.114c0,0-2.109-34.959-1.576-67.171c0.447-27.031-2.245-53.716-2.123-60.444
		c0.304-16.674,10.795-28.477,16.929-28.582c0,0,42.909,3.533,78.749,31.408c0,0-3.769,139.679-8.536,141.295
		C255.88,267.955,213.333,245.393,211.742,238.114z"/>
</g>
<path style="fill:#155C92;" d="M210.166,170.942c0.299-18.032-0.8-35.9-1.529-47.802l0.281,106.606
	c0.825,0.104,1.626,0.124,2.389,0.069C210.721,217.549,209.792,193.576,210.166,170.942z"/>
<path style="fill:#CD2A01;" d="M270.741,94.179c-6.185-2.698-10.633-4.194-16.124-5.901c-6.122,0.092-14.85,6.777-16.444,10.219
	c-15.398,33.218-14.85,95.188-11.165,150.885c7.824,3.634,18.091,6.982,29.472,8.505
	C253.729,168.718,277.223,108.978,270.741,94.179z"/>
<path style="fill:#FFB657;" d="M241.544,73.967c0,0-2.257,17.054-3.335,26.423c-0.797,6.932,11.451,11.399,20.811,8.455
	c9.361-2.943,12.657-6.062,11.915-10.094c-3.098-16.835-2.901-36.2-2.901-36.2L241.544,73.967z"/>
<path style="fill:#FEC377;" d="M219.245,45.941c0,0,2.137,32.034,9.84,37.756c7.703,5.722,31.843,0.236,45.271-22.623
	c11.202-19.069,6.527-56.474-17.551-60.439C228.68-3.997,217.559,17.273,219.245,45.941z"/>
<path style="fill:#FEF5CC;" d="M262.178,38.402c-1.349,8.78-0.063,17.741,1.582,26.472c-0.227-4.366,3.997-19.601,7.276-22.88
	c2.043,4.047,1.748,14.943,0.851,22.925c2.545-0.752,18.382-20.198,8.25-40.661C276.329,16.568,263.292,31.152,262.178,38.402z"/>
<path style="fill:#FFB657;" d="M294.643,268.746c0,0-0.372,12.188-0.029,14.511c0.343,2.324,2.852,4.634,2.852,4.634
	s-0.227,5.631,1.956,7.253c2.183,1.622,14.83-4.522,16.771-6.514c2.728-2.799-0.618-22.97-0.618-22.97
	S297.801,258.565,294.643,268.746z"/>
<path style="fill:#1A6FB0;" d="M303.721,113.325c0,0-13.344,3.167-13.979,19.049s3.78,30.626,2.372,82.325
	c-1.257,46.179,1.335,56.067,1.335,56.067s9.461,8.899,24.474-2.622c0,0,0.102-73.43-0.055-82.798
	C316.887,127.007,314.274,119.687,303.721,113.325z"/>
<path style="fill:#155C92;" d="M292.114,214.699c0.906-33.273-0.599-51.23-1.619-64.044l-0.001-0.009l-1.919,105.876
	c1.172-0.281,2.344-0.595,3.514-0.934C291.737,247.039,291.586,234.071,292.114,214.699z"/>
<path style="fill:#FEC377;" d="M265.022,59.14c0,0,2.514-17.665,7.747-17.899c3.691-0.165,5.297,7.459,2.585,13.321
	c-2.713,5.862-10.332,11.329-10.332,11.329V59.14z"/>
</svg>