<?xml version="1.0" encoding="iso-8859-1"?>
<!-- Uploaded to: SVG Repo, www.svgrepo.com, Generator: SVG Repo Mixer Tools -->
<svg height="800px" width="800px" version="1.1" id="Layer_1" xmlns="http://www.w3.org/2000/svg" xmlns:xlink="http://www.w3.org/1999/xlink" 
	 viewBox="0 0 512 512" xml:space="preserve">
<g>
	<path style="fill:#FFB657;" d="M198.996,222.117c0,0-2.069,19.862-0.835,21.096s6.905,4.687,8.263,4.687
		c1.358,0,11.293-3.805,12.452-6.406c0.997-2.238,0.267-7.893-2.566-11.292c-3.255-3.904-2.834-10.767-2.834-10.767L198.996,222.117
		z"/>
	<path style="fill:#FFB657;" d="M226.159,83.27c-2.379-0.252-16.462,2.487-19.182,24.096c-0.98,7.787-3.123,38.03-4.14,64.033
		c-1.165,29.794-3.842,50.719-3.842,50.719c0,6.8,11.968,11.89,16.955,6.902c0.747-0.747,0.93-28.979,6.955-69.676
		C228.605,120.853,242.722,85.023,226.159,83.27z"/>
</g>
<path style="fill:#CD2A01;" d="M199.815,207.922c-0.809,8.769-1.462,13.876-1.462,13.876c0,7.043,12.396,12.314,17.561,7.149
	c0.312-0.311,0.53-5.254,1.086-13.797C209.838,216.335,202.199,214.881,199.815,207.922z"/>
<g>
	<path style="fill:#791900;" d="M221.938,444.094c0,0-33.612,32.838-26.32,37.425c10.156,6.389,51.43-19.977,51.43-22.093
		c0-2.116-2.923-22.666-2.923-22.666L221.938,444.094z"/>
	<path style="fill:#791900;" d="M267.498,469.359c0,0-32.446,35.411-23.06,41.699c9.968,6.677,48.17-24.25,48.17-26.366
		c0-2.116-2.923-22.666-2.923-22.666L267.498,469.359z"/>
</g>
<path style="fill:#FFB657;" d="M214.734,240.495l6.082,204.71c0,0,1.965,4.723,12.805,4.723c9.114,0,11.239-7.931,11.239-7.931
	l6.226-146.077l0.787,0.113l13.911,175.245c0,0,3.201,6.083,11.122,5.611c17.057-1.017,13.682-8.419,13.682-8.419l3.588-220.96
	L214.734,240.495z"/>
<g>
	<path style="fill:#791900;" d="M220.503,434.699l-0.37,11.253c0,0,2.648,9.202,13.488,9.202c9.114,0,11.239-13.155,11.239-13.155
		l0.49-11.487C238.208,435.834,229.435,437.718,220.503,434.699z"/>
	<path style="fill:#791900;" d="M290.79,455.982c-7.677,4.766-16.752,6.941-25.933,3.613l0.244,12.427
		c0,0,3.885,10.562,11.804,10.09c17.057-1.017,13.682-13.643,13.682-13.643L290.79,455.982z"/>
</g>
<path style="fill:#891D00;" d="M291.69,350.433c0.953-0.409,1.957-0.817,2.988-1.238l1.646-101.308l-83.737-7.392l2.874,96.767
	c10.61,4.668,22.062,8.405,33.602,4.828l1.84-43.174l0.83,0.118l3.748,47.215C266.127,352.991,279.795,354.398,291.69,350.433z"/>
<path style="fill:#AD2201;" d="M212.225,238.967c0,0-2.102-34.85-1.57-66.962c0.446-26.947-2.239-53.55-2.117-60.256
	c0.303-16.622,10.762-28.389,16.876-28.493c0,0,42.776,3.521,78.503,31.31c0,0-3.757,139.244-8.509,140.856
	C256.225,268.715,213.811,246.223,212.225,238.967z"/>
<path style="fill:#CD2A01;" d="M268.553,170.302c2.58,15.63-5.909,28.824-18.96,29.469c-13.051,0.645-25.721-11.503-28.301-27.134
	c-2.58-15.63,5.909-28.823,18.96-29.469C253.303,142.524,265.974,154.672,268.553,170.302z"/>
<path style="fill:#AD2201;" d="M276.841,331.323c0.855,5.176-1.957,9.545-6.279,9.759c-4.321,0.213-8.518-3.809-9.372-8.985
	c-0.855-5.176,1.957-9.545,6.279-9.759C271.79,322.125,275.987,326.147,276.841,331.323z"/>
<path style="fill:#891D00;" d="M290.733,151.772l-1.914,105.546c2.201-0.528,4.401-1.153,6.59-1.895
	c1.094-0.371,2.136-8.048,3.09-19.631L290.733,151.772z"/>
<path style="fill:#FFB657;" d="M241.934,75.33c0,0-2.251,17-3.325,26.341c-0.795,6.91,11.415,11.363,20.747,8.429
	s13.102-9.836,13.102-9.836c-4.402-14.824-4.116-36.313-4.116-36.313L241.934,75.33z"/>
<path style="fill:#FEC377;" d="M219.705,47.391c0,0,2.13,31.935,9.809,37.638c7.678,5.704,31.745,0.235,45.13-22.552
	c11.167-19.01,6.507-56.298-17.496-60.251C229.11-2.391,218.023,18.812,219.705,47.391z"/>
<path style="fill:#FFA834;" d="M257.156,0.541c-23.112-3.279-35.957,8.469-37.643,32.191c18.691,12.388,30.92-2.917,37.558,4.668
	c6.439,8.279,5.789,27.517,7.071,26.188c2.253-11.898,2.43-19.783,8.317-20.767c6.574-1.099,3.596,10.477,2.936,16.572
	C287.712,39.757,278.127,3.516,257.156,0.541z"/>
<g>
	<path style="fill:#FFB657;" d="M294.868,269.503c0,0-0.371,12.149-0.029,14.467c0.342,2.317,2.843,4.619,2.843,4.619
		s-0.226,5.614,1.95,7.23c2.175,1.616,14.784-4.508,16.719-6.494c2.72-2.791-0.615-22.898-0.615-22.898
		S298.017,259.353,294.868,269.503z"/>
	<path style="fill:#FFB657;" d="M303.917,114.566c0,0-13.303,3.157-13.936,18.99c-0.633,15.833,3.976,29.971,4.712,82.069
		c0.651,46.047,0.174,53.878,0.174,53.878s5.9,8.409,20.866-3.076c0,0,0.323-70.725,0.166-80.063
		C314.922,128.206,314.437,120.908,303.917,114.566z"/>
</g>
<path style="fill:#CD2A01;" d="M294.084,253.636c0.005,13.511-0.184,16.641-0.184,16.641s6.444,9.185,22.794-3.359
	c0,0,0.034-7.535,0.076-18.209C310.325,252.733,302.994,254.952,294.084,253.636z"/>
<path style="fill:#FEC377;" d="M265.339,60.55c0,0,2.507-17.609,7.723-17.843c3.679-0.164,5.28,7.436,2.577,13.28
	c-2.704,5.844-10.3,11.293-10.3,11.293L265.339,60.55L265.339,60.55z"/>
</svg>