<?xml version="1.0" encoding="iso-8859-1"?>
<!-- Uploaded to: SVG Repo, www.svgrepo.com, Generator: SVG Repo Mixer Tools -->
<svg height="800px" width="800px" version="1.1" id="Layer_1" xmlns="http://www.w3.org/2000/svg" xmlns:xlink="http://www.w3.org/1999/xlink" 
	 viewBox="0 0 512.001 512.001" xml:space="preserve">
<polygon style="fill:#3D99E2;" points="276.345,477.126 278.156,505.441 280.035,505.441 280.035,473.049 "/>
<path style="fill:#FFB657;" d="M205.115,226.776c0,0-2.8,21.954-1.72,23.034c1.08,1.08,6.047,4.104,7.236,4.104
	c1.189,0,9.889-3.332,10.903-5.609c0.874-1.96,0.234-6.911-2.246-9.889c-2.849-3.419-2.482-9.428-2.482-9.428L205.115,226.776z"/>
<polygon style="fill:#FF9911;" points="231.348,287.609 261.896,294.732 272.165,256.131 219.045,248.153 "/>
<path style="fill:#3D99E2;" d="M278.885,465.324c-2.42-8.139-16.53-3.872-16.53-3.872s-10.124,30.937-11.936,36.545
	c-1.812,5.607-6.561,12.733,0.831,13.833c12.197,1.816,22.253-11.039,24.237-26.216
	C275.744,483.649,284.598,484.531,278.885,465.324z"/>
<path style="fill:#FFB657;" d="M255.358,256.231l6.997,205.219c0,0-3.857,6.426,4.386,7.26c7.826,0.791,11.377-3.824,11.377-3.824
	s13.226-54.78,4.653-96.873c0,0,18.027-63.265,18.106-83.606c0.103-27.183-15.63-46.579-15.63-46.579L255.358,256.231z"/>
<path style="fill:#3D99E2;" d="M236.903,440.56c-2.421-8.139-16.53-3.872-16.53-3.872s-10.124,28.929-11.936,34.537
	c-1.812,5.607-5.69,14.249,0.679,15.841c9.409,2.352,22.403-11.04,24.389-26.216c0.059-0.445,0.56-0.745,1.232-1.165l1.335,20.869
	h1.879v-24.347C239.109,453.582,239.421,449.022,236.903,440.56z"/>
<g>
	<path style="fill:#FFB657;" d="M213.377,231.467l6.997,205.219c0,0-3.857,4.94,4.385,5.774c7.826,0.791,11.347-3.129,11.347-3.129
		s13.255-53.99,4.682-96.082c0,0,18.027-63.265,18.106-83.606c0.103-27.183-15.631-46.579-15.631-46.579L213.377,231.467z"/>
	<path style="fill:#FFB657;" d="M222.82,87.315c0,0-18.482-2.106-15.742,54.742c2.756,57.175-1.963,84.718-1.963,84.718
		s-0.024,5.135,7.236,5.135c3.025,0,4.455-2.921,4.455-2.921s6.663-66.16,6.985-69.376
		C225.049,147.041,236.791,90.454,222.82,87.315z"/>
</g>
<path style="fill:#FF3E61;" d="M213.412,243.417l-2.231,73.871c0,0,7.922,12.619,44.473,21.218
	c20.689,4.867,36.332,0.813,36.332,0.813s14.602-49.836,7.996-72.382c-5.781-19.735-14.693-31.688-14.693-31.688L213.412,243.417z"
	/>
<path style="fill:#1D81CD;" d="M211.155,241.878c0,0,5.51-27.559,6.04-59.65c0.192-11.632-11.062-25.158-11.062-39.226
	c0-14.65,5.426-36.006,16.686-55.686c0,0,43.833-12.006,77.697,40.886c0,0-17.725,23.11-19.732,62.632
	c-1.012,19.933,12.823,58.291,12.823,58.291C260.035,275.703,216.602,266.795,211.155,241.878z"/>
<path style="fill:#FFB657;" d="M240.15,80.746c0,0-2.249,16.989-3.323,26.324c-0.794,6.906,11.407,11.356,20.734,8.424
	c9.326-2.933,13.093-9.829,13.093-9.829c-4.399-14.814-4.113-36.289-4.113-36.289L240.15,80.746z"/>
<path style="fill:#FEC377;" d="M219.214,50.201c0,0,2.234,32.336,10.438,38.102c8.205,5.765,36.735-3.416,48.303-22.901
	c11.568-19.486,7.162-59.953-18.506-63.924C229.467-3.159,217.454,21.263,219.214,50.201z"/>
<path style="fill:#CBA400;" d="M279.652,14.996C276.434,7.851,269.464,2.5,261.78,0.966c-2.854-0.569-7.346-1.061-10.253-0.951
	c-5.039,0.189-14.662,3.138-20.787,6.795c-8.892,5.309-14.652,14.697-17.773,24.571c-3.867,12.231,1.778,20.629,7.962,33.184
	c-7.512-36.364,27.751-21.331,36.509-30.611c0.051,0.032,4.025,23.162,6.277,31.733c0.582,2.214,3.697-19.489,4.078-17.085
	c2.022,12.74,3.734,22.008-1.448,29.405C279.644,68.635,296.314,51.999,279.652,14.996z"/>
<path style="fill:#FEC377;" d="M265.046,59.651c0,0,2.51-17.63,7.732-17.864c3.683-0.164,5.287,7.445,2.58,13.295
	s-10.312,11.307-10.312,11.307V59.651L265.046,59.651z"/>
<g>
	<path style="fill:#FFB657;" d="M288.209,276.049c0,0-2.87,12.509-2.529,14.825c0.342,2.315,2.841,4.616,2.841,4.616
		s-0.226,5.61,1.949,7.225c2.174,1.615,14.775-4.504,16.708-6.49c2.718-2.789-0.615-22.883-0.615-22.883
		S291.356,265.907,288.209,276.049z"/>
	<path style="fill:#FFB657;" d="M294.868,122.652c-5.5-1.452-13.409,2.085-14.041,17.907c-0.633,15.823,6.292,26.996,6.292,78.52
		c0,16.169,1.089,56.97,1.089,56.97s3.397,8.772,18.353-2.705c0,0,2.442-70.679,2.285-80.01
		C307.871,135.214,300.876,124.238,294.868,122.652z"/>
	<path style="fill:#FFB657;" d="M220.373,436.687c0,0-7.212,20.512-7.417,22.808c-0.326,3.653,5.742,5.931,8.018,3.653
		c2.658-2.658,15.132-23.816,15.132-23.816L220.373,436.687z"/>
	<path style="fill:#FFB657;" d="M262.384,461.453c0,0-7.212,20.512-7.417,22.808c-0.326,3.653,5.742,5.931,8.018,3.653
		c2.658-2.658,15.132-23.027,15.132-23.027L262.384,461.453z"/>
</g>
<g>
	<path style="fill:#E0E0E2;" d="M269.559,101.602c0,0,0.467,1.524-0.652,2.644c-2.614,2.614-11.607,8.536-22.569,11.234l5.02,16.624
		c0,0,22.494-16.868,22.121-24.523c-0.307-6.317-4.665-9.751-4.665-9.751L269.559,101.602z"/>
	<path style="fill:#E0E0E2;" d="M237.646,100.929c0,0-3.129,3.668-5.235,10.686c-2.105,7.02,2.617,16.847,2.617,16.847l6.804-14.061
		c0,0-4.383-3.286-4.684-5.396C236.848,106.895,237.646,100.929,237.646,100.929z"/>
</g>
</svg>