<?xml version="1.0" encoding="iso-8859-1"?>
<!-- Uploaded to: SVG Repo, www.svgrepo.com, Generator: SVG Repo Mixer Tools -->
<svg height="800px" width="800px" version="1.1" id="Layer_1" xmlns="http://www.w3.org/2000/svg" xmlns:xlink="http://www.w3.org/1999/xlink" 
	 viewBox="0 0 511.999 511.999" xml:space="preserve">
<path style="fill:#FFB657;" d="M206.926,227.183c0,0-2.797,21.928-1.718,23.007c1.079,1.079,6.039,4.1,7.227,4.1
	c1.188,0,9.877-3.328,10.891-5.602c0.872-1.958,0.234-6.903-2.244-9.876c-2.846-3.415-2.478-9.417-2.478-9.417L206.926,227.183z"/>
<path style="fill:#898890;" d="M224.421,450.486c0,0-27.99,28.076-22.272,31.675c7.963,5.01,40.332-15.665,40.332-17.326
	c0-1.659-2.292-17.775-2.292-17.775L224.421,450.486z"/>
<path style="fill:#FFB657;" d="M225.925,450.492c0,0-12.407,12.433-12.929,14.509c-0.522,2.076,3.134,5.734,7.836,3.383
	c4.702-2.351,15.149-15.28,15.149-15.28L225.925,450.492z"/>
<path style="fill:#898890;" d="M267.403,476.235c0,0-27.076,30.095-19.715,35.025c7.817,5.236,37.775-19.017,37.775-20.676
	c0-1.659-2.292-17.775-2.292-17.775L267.403,476.235z"/>
<path style="fill:#FFB657;" d="M269.13,476.107c0,0-11.663,13.133-12.063,15.237c-0.4,2.104,2.872,4.951,7.429,2.331
	c4.557-2.62,14.824-15.545,14.824-15.545L269.13,476.107z"/>
<path style="fill:#2E2E30;" d="M305.924,292.466c0.107-27.914-16.052-47.834-16.052-47.834l-73.804-6.532l7.185,210.748
	c0,0-0.437,5.45,8.028,6.305c8.036,0.813,9.96-4.566,9.96-4.566s11.782-54.468,2.978-97.695c0,0,5.808-20.382,10.932-41.985
	l5.692,1.327l5.525,162.044c0,0-0.437,6.975,8.028,7.831c8.036,0.813,9.989-5.279,9.989-5.279s11.752-55.279,2.947-98.506
	C287.332,378.324,305.845,313.356,305.924,292.466z"/>
<path style="fill:#FFB657;" d="M289.919,276.397c0,0-2.867,12.495-2.525,14.807c0.341,2.313,2.838,4.611,2.838,4.611
	s-0.226,5.603,1.946,7.216c2.172,1.613,14.757-4.5,16.688-6.482c2.714-2.785-0.614-22.856-0.614-22.856
	S293.063,266.267,289.919,276.397z"/>
<path style="fill:#D07400;" d="M288.081,28.055c1.632,7.854-1.911,43.613-2.359,100.57c-0.255,32.388-30.246,52.921-30.246,52.921
	s-24.585-29.037-27.896-73.98c-1.98-26.876-0.377-53.877,0.03-80.835c0.313-20.702,10.954-30.228,38.108-25.57
	C277.367,3.158,285.673,16.466,288.081,28.055z"/>
<path style="fill:#ACABB1;" d="M310.534,193.781c-0.803-47.787-5.679-63.663-10.727-68.666
	C266.351,76.469,224.61,87.89,224.61,87.89s-16.51-1.871-15.984,45.966c-0.447,3.443-0.681,6.69-0.681,9.653
	c0,3.033,0.526,6.041,1.345,9.01c1.654,50.45-3.625,75.568-3.625,75.568s1.238,4.223,8.49,4.223c0.179,0,0.336-0.008,0.508-0.012
	c-0.962,6.26-1.702,9.967-1.702,9.967c5.062,23.158,42.971,32.453,75.232,12.25c-0.092,16.311,0.317,20.581,0.317,20.581
	s7.142,12.533,22.08,1.07C310.588,276.168,310.69,203.102,310.534,193.781z M282.505,191.285c0.46-9.048,1.749-17.222,3.455-24.467
	c1.831,11.207,3.573,26.878,2.871,52.678c-0.083,3.047-0.156,5.922-0.22,8.657C285.254,216.029,281.995,201.321,282.505,191.285z"/>
<path style="fill:#898890;" d="M214.153,232.311c0.179,0,0.342-0.006,0.508-0.012c0.406-2.64,0.85-5.736,1.298-9.205l2.707-30.405
	c0.156-3.267,0.27-6.606,0.326-10.002c0.15-9.113-6.73-19.389-9.706-30.179c0.08,2.478,0.145,4.901,0.194,7.261
	c2.732,6.395,5.378,12.717,6.774,16.409c3.642,9.632-5.469,55.671-5.487,55.76C211.718,232.169,212.834,232.311,214.153,232.311z"/>
<path style="fill:#FFFFFF;" d="M241.431,98.303v-2.083c0,0-18.492,41.584-15.367,71.795l-0.356,91.149
	c4.452,2.735,9.807,4.666,15.722,5.671l-1.825-32.826c-1.125-20.235,0.65-40.527,5.272-60.26l0,0l27.51-65.532L241.431,98.303z"/>
<path style="fill:#FFB657;" d="M241.919,81.329c0,0-2.246,16.968-3.318,26.292c-0.793,6.897,11.393,11.342,20.709,8.414
	c9.314-2.929,13.078-9.818,13.078-9.818c-4.393-14.796-4.108-36.246-4.108-36.246L241.919,81.329z"/>
<path style="fill:#FEC377;" d="M221.006,50.82c0,0,2.231,32.297,10.426,38.055c8.195,5.758,36.691-3.411,48.245-22.873
	c11.554-19.462,7.154-59.882-18.483-63.847C231.247-2.476,219.25,21.916,221.006,50.82z"/>
<path style="fill:#D07400;" d="M287.334,35.842c-0.161-6.523-3.058-15.109-5.963-20.242c-3.859-6.808-10.175-12.481-17.85-14.013
	c-2.85-0.568-7.336-1.058-10.242-0.95c-5.034,0.189-14.645,3.134-20.762,6.787c-8.881,5.302-14.635,14.68-17.753,24.542
	c-3.863,12.218,1.593,26.123,4.229,38.662c6.715-21.273,16.369-21.087,25.26-30.676c3.476-3.749,9.305-8.863,13.142-14.424
	c0.051,0.032,0.102,0.065,0.155,0.097c-0.436,2.455-0.067,5.42,1.391,8.763c1.174,2.693,3.068,4.996,4.697,7.44
	c9.605,14.401,5.644,25.096,6.95,47.559C283.875,80.027,288.83,40.342,287.334,35.842z"/>
</svg>