<?xml version="1.0" encoding="iso-8859-1"?>
<!-- Uploaded to: SVG Repo, www.svgrepo.com, Generator: SVG Repo Mixer Tools -->
<svg height="800px" width="800px" version="1.1" id="Layer_1" xmlns="http://www.w3.org/2000/svg" xmlns:xlink="http://www.w3.org/1999/xlink" 
	 viewBox="0 0 512 512" xml:space="preserve">
<path style="fill:#891D00;" d="M257.034,143.398c16.714,4.228,36.342-11.997,36.295-26.908c-0.035-11.193-6.185-47.922-6.128-57.451
	c0.057-9.576-0.354-19.121-2.736-28.69c-3.759-15.103-36.819-41.477-61.072-4.39c-5.391,8.244-2.088,19.165-2.625,28.598
	c-0.486,8.54-4.737,27.637-4.443,36.206C217.744,132.075,239.971,139.083,257.034,143.398z"/>
<g>
	<polygon style="fill:#CD2A01;" points="234.259,452.346 236.067,480.61 237.943,480.61 237.943,448.276 	"/>
	<polygon style="fill:#CD2A01;" points="276.266,477.189 278.075,505.452 279.95,505.452 279.95,473.119 	"/>
</g>
<path style="fill:#FFB657;" d="M205.165,227.29c0,0-2.795,21.915-1.717,22.993c1.079,1.079,6.035,4.097,7.222,4.097
	s9.871-3.326,10.884-5.599c0.872-1.957,0.234-6.899-2.243-9.871c-2.844-3.413-2.477-9.411-2.477-9.411L205.165,227.29z"/>
<g>
	<path style="fill:#CD2A01;" d="M262.302,461.542c0,0-10.105,30.882-11.914,36.479c-1.808,5.597-6.549,12.709,0.829,13.808
		c12.175,1.813,22.212-11.02,24.194-26.169c0.256-1.96,9.094-1.08,3.391-20.252C276.386,457.284,262.302,461.542,262.302,461.542z"
		/>
	<path style="fill:#CD2A01;" d="M220.397,436.823c0,0-10.105,28.877-11.915,34.474c-1.808,5.597-5.68,14.224,0.679,15.813
		c9.392,2.347,22.363-11.02,24.344-26.169c0.256-1.96,9.095-1.08,3.391-20.252C234.48,432.565,220.397,436.823,220.397,436.823z"/>
</g>
<path style="fill:#1D81CD;" d="M300.753,284.818c0.103-27.133-15.603-46.495-15.603-46.495l-71.739-6.35l6.984,204.85
	c0,0-3.85,4.932,4.378,5.764c7.811,0.79,11.327-3.123,11.327-3.123s13.232-53.893,4.674-95.91c0,0,5.645-19.812,10.625-40.809
	l5.532,1.29l5.37,157.508c0,0-3.85,6.415,4.378,7.246c7.811,0.789,11.356-3.817,11.356-3.817s13.202-54.681,4.644-96.698
	C282.68,368.272,300.675,305.122,300.753,284.818z"/>
<g>
	<path style="fill:#898890;" d="M222.839,88.081c0,0-18.448-2.102-15.714,54.644c2.751,57.072-3.221,85.47-3.221,85.47
		s1.237,4.22,8.485,4.22s8.453-2.714,8.453-2.714s2.645-66.242,2.966-69.454C225.064,147.699,236.785,91.214,222.839,88.081z"/>
	<path style="fill:#898890;" d="M211.195,242.364c0,0,5.5-27.509,6.03-59.543c0.192-11.611-11.042-25.112-11.042-39.155
		c0-14.624,5.416-35.94,16.655-55.586c0,0,43.753-11.984,77.558,40.813c0,0-17.693,23.069-19.697,62.52
		c-1.011,19.897,12.8,58.186,12.8,58.186C259.987,276.128,216.632,267.236,211.195,242.364z"/>
</g>
<path style="fill:#77767E;" d="M212.389,232.416c0.179,0,0.341-0.006,0.507-0.011c0.406-2.639,0.85-5.732,1.297-9.199l2.705-30.387
	c0.156-3.265,0.269-6.602,0.326-9.996c0.15-9.107-6.726-19.377-9.7-30.16c0.08,2.477,0.145,4.898,0.194,7.257
	c2.73,6.391,5.374,12.709,6.77,16.4c3.64,9.626-5.466,55.638-5.484,55.727C209.955,232.273,211.07,232.416,212.389,232.416z"/>
<path style="fill:#FFB657;" d="M240.137,81.524c0,0-2.245,16.958-3.316,26.276c-0.793,6.892,11.387,11.335,20.696,8.409
	c9.309-2.927,13.07-9.812,13.07-9.812c-4.391-14.787-4.106-36.224-4.106-36.224L240.137,81.524z"/>
<path style="fill:#77767E;" d="M272.471,105.961c-1.707-5.748-3.022-18.933-4.592-18.297c-8.101,8.468-18.923,12.696-29.652,7.641
	c-2.338-1.188-2.868,8.828-3.645,12.186c-1.539,6.654-0.793,12.322,2.101,15.962c2.025,2.546,5.036,3.948,8.481,3.948h0.002
	c1.492,0,3.066-0.257,4.678-0.763c9.835-3.092,21.763-18.147,22.268-18.788L272.78,107L272.471,105.961z"/>
<path style="fill:#FEC377;" d="M219.238,51.033c0,0,2.229,32.278,10.42,38.032c8.19,5.754,36.669-3.409,48.216-22.86
	c11.547-19.451,7.149-59.846-18.472-63.808C229.473-2.23,217.482,22.148,219.238,51.033z"/>
<path style="fill:#891D00;" d="M233.75,3.917c-34.098,14.937-13.085,81.99-13.085,81.99s-3.665-33.52,8.943-47.958
	c9.504-10.884,20.874-15.923,28.788-14.631c-0.985,4.348-2.614,16.303,5.808,26.937c8.748,11.047,1.064,28.753-8.395,39.198
	c3.653-1.872,6.916-4.429,9.938-7.207c8.133-7.474,14.724-16.772,18.255-27.239c3.531-10.467,3.613-22.029,0.167-32.523
	C278.275,4.536,256.916-6.231,233.75,3.917z"/>
<path style="fill:#FFB657;" d="M288.109,276.475c0,0-2.865,12.487-2.524,14.798c0.34,2.312,2.836,4.608,2.836,4.608
	s-0.226,5.6,1.945,7.212s14.748-4.497,16.678-6.478c2.713-2.784-0.614-22.842-0.614-22.842S291.251,266.351,288.109,276.475z"/>
<path style="fill:#898890;" d="M294.757,123.355c-5.49-1.449-13.385,2.081-14.016,17.875c-0.632,15.794,7.681,26.966,6.282,78.379
	c-1.25,45.922-0.324,55.568-0.324,55.568s7.138,12.526,22.067,1.069c0,0,0.101-73.022-0.055-82.337
	C307.736,135.893,300.754,124.937,294.757,123.355z"/>
<g>
	<path style="fill:#FFB657;" d="M220.397,436.823c0,0-7.199,20.475-7.403,22.766c-0.326,3.647,5.73,5.919,8.003,3.647
		c2.653-2.654,15.105-23.773,15.105-23.773L220.397,436.823z"/>
	<path style="fill:#FFB657;" d="M262.331,461.543c0,0-7.199,20.475-7.404,22.766c-0.326,3.647,5.731,5.919,8.003,3.647
		c2.653-2.653,15.105-22.985,15.105-22.985L262.331,461.543z"/>
</g>
</svg>