<?xml version="1.0" encoding="iso-8859-1"?>
<!-- Uploaded to: SVG Repo, www.svgrepo.com, Generator: SVG Repo Mixer Tools -->
<svg height="800px" width="800px" version="1.1" id="Layer_1" xmlns="http://www.w3.org/2000/svg" xmlns:xlink="http://www.w3.org/1999/xlink" 
	 viewBox="0 0 511.999 511.999" xml:space="preserve">
<g>
	<path style="fill:#FFB657;" d="M198.319,222.064c0,0-2.069,19.865-0.835,21.099c1.234,1.234,6.906,4.688,8.265,4.688
		c1.359,0,11.294-3.806,12.454-6.407c0.998-2.238,0.268-7.894-2.567-11.294c-3.255-3.905-2.834-10.769-2.834-10.769L198.319,222.064
		z"/>
	<path style="fill:#FFB657;" d="M225.487,83.192c-2.379-0.252-16.465,2.487-19.185,24.1c-0.98,7.788-3.124,38.037-4.14,64.044
		c-1.165,29.799-3.842,50.728-3.842,50.728c0,6.801,11.971,11.892,16.958,6.903c0.747-0.747,0.93-28.984,6.957-69.688
		C227.933,120.783,242.053,84.945,225.487,83.192z"/>
</g>
<g>
	<path style="fill:#884D01;" d="M221.265,444.08c0,0-33.618,32.843-26.325,37.432c10.157,6.39,51.439-19.98,51.439-22.097
		c0-2.116-2.924-22.67-2.924-22.67L221.265,444.08z"/>
	<path style="fill:#884D01;" d="M266.833,469.351c0,0-32.451,35.417-23.063,41.706c9.969,6.679,48.179-24.255,48.179-26.371
		s-2.924-22.67-2.924-22.67L266.833,469.351z"/>
</g>
<path style="fill:#FFB657;" d="M214.06,240.446l6.083,204.746c0,0,1.966,4.723,12.808,4.723c9.116,0,11.241-7.933,11.241-7.933
	l6.227-146.103l0.787,0.113l13.913,175.276c0,0,3.202,6.083,11.124,5.612c17.06-1.017,13.684-8.421,13.684-8.421l3.589-220.999
	L214.06,240.446z"/>
<g>
	<path style="fill:#E0E0E2;" d="M219.83,434.683l0.312,10.51c0,0,1.966,4.723,12.808,4.723c9.116,0,11.241-7.933,11.241-7.933
		l0.49-11.489C237.537,435.82,228.764,437.704,219.83,434.683z"/>
	<path style="fill:#E0E0E2;" d="M290.129,455.97c-7.679,4.767-16.755,6.942-25.938,3.614l0.927,11.684c0,0,3.203,6.084,11.124,5.612
		c17.06-1.017,13.684-8.421,13.684-8.421L290.129,455.97z"/>
</g>
<path style="fill:#013F8A;" d="M291.029,350.403c0.953-0.409,1.957-0.817,2.989-1.238l1.646-101.326l-83.752-7.393l2.875,96.784
	c10.612,4.669,22.066,8.406,33.608,4.829l1.84-43.182l0.83,0.118l3.748,47.224C265.461,352.961,279.132,354.368,291.029,350.403z"/>
<path style="fill:#1D1D1F;" d="M211.55,238.917c0,0-2.103-34.856-1.571-66.974c0.446-26.952-2.239-53.56-2.117-60.266
	c0.303-16.625,10.764-28.394,16.879-28.498c0,0,42.783,3.522,78.517,31.316c0,0-3.758,139.269-8.511,140.881
	C255.559,268.671,213.136,246.174,211.55,238.917z"/>
<path style="fill:#FFB657;" d="M241.264,75.251c0,0-2.251,17.003-3.325,26.346c-0.795,6.911,11.417,11.365,20.751,8.43
	c9.333-2.935,13.104-9.838,13.104-9.838c-4.403-14.826-4.116-36.319-4.116-36.319L241.264,75.251z"/>
<g>
	<path style="fill:#E0E0E2;" d="M270.617,95.629c0,0,0.466,1.523-0.651,2.641c-2.611,2.611-11.594,8.527-22.547,11.222l5.014,16.608
		c0,0,22.472-16.851,22.1-24.5c-0.307-6.311-4.661-9.74-4.661-9.74L270.617,95.629z"/>
	<path style="fill:#E0E0E2;" d="M238.736,94.957c0,0-3.126,3.664-5.23,10.676c-2.104,7.012,2.615,16.83,2.615,16.83l6.798-14.047
		c0,0-4.379-3.282-4.68-5.39C237.94,100.917,238.736,94.957,238.736,94.957z"/>
	<polygon style="fill:#E0E0E2;" points="242.92,108.756 241.919,140.29 245.925,141.857 247.437,110.158 	"/>
</g>
<path style="fill:#FEC377;" d="M219.032,47.308c0,0,2.131,31.941,9.81,37.645c7.68,5.705,31.75,0.235,45.138-22.556
	c11.169-19.014,6.508-56.308-17.5-60.262C228.439-2.485,217.349,18.724,219.032,47.308z"/>
<g>
	<path style="fill:#FF9911;" d="M218.959,45.843c-0.951-5.044,12.255-14.673,28.461-12.496c6.922,0.93,13.219,4,19.334,0.626
		c3.096-1.71,5.293-4.617,7.323-7.513c5.668-8.085,1.056-14.932-7.626-20.942c-9.987-6.912-31.43-9.195-44.047,4.332
		C211.914,21.094,217.309,37.089,218.959,45.843z"/>
	<path style="fill:#FF9911;" d="M263.25,63.87c1.424-8.098,2.244-11.132,3.652-15.089c2.727-7.663,7.75-7.297,9.426-5.621
		c3.033,3.033-2.091,17.419-3.686,21.401c10.393-11.971,10.031-26.332,8.363-38.188c-0.296-2.101-1.063-4.156-2.224-5.932
		c-1.161-1.777-3.076-3.203-5.199-3.206c-1.098-0.001-2.16,0.37-3.18,0.776c-6.563,2.614-9.897,9.183-11.276,15.516
		C256.549,45.369,261.552,51.932,263.25,63.87z"/>
</g>
<g>
	<path style="fill:#FFB657;" d="M294.207,269.458c0,0-0.371,12.151-0.029,14.469c0.342,2.318,2.843,4.62,2.843,4.62
		s-0.226,5.615,1.95,7.231c2.176,1.617,14.787-4.509,16.722-6.495c2.72-2.791-0.615-22.902-0.615-22.902
		S297.358,259.307,294.207,269.458z"/>
	<path style="fill:#FFB657;" d="M302.274,116.492c0,0-12.32,1.16-12.953,16.995c-0.633,15.836,3.976,29.976,4.713,82.084
		c0.651,46.055,0.175,53.888,0.175,53.888s5.901,8.41,20.87-3.077c0,0,0.323-70.737,0.166-80.076
		C314.266,128.136,312.796,122.835,302.274,116.492z"/>
</g>
<path style="fill:#FEC377;" d="M264.674,60.468c0,0,2.507-17.612,7.725-17.847c3.679-0.164,5.281,7.437,2.577,13.282
	s-10.302,11.295-10.302,11.295V60.468L264.674,60.468z"/>
<g>
	<path style="fill:#1D1D1F;" d="M288.158,133.487c0,15.687,0,40.415,0,40.415s23.926,3.207,29.699-2.565
		c0,0,3.289-48.883-14.598-56.843C296.869,111.649,288.158,125.137,288.158,133.487z"/>
	<path style="fill:#1D1D1F;" d="M214.221,135.42c-11.849-4.174-11.141-11.141-11.141-11.141
		c0.92-42.833,19.834-40.769,19.834-40.769L214.221,135.42z"/>
</g>
</svg>