<?xml version="1.0" encoding="iso-8859-1"?>
<!-- Uploaded to: SVG Repo, www.svgrepo.com, Generator: SVG Repo Mixer Tools -->
<svg height="800px" width="800px" version="1.1" id="Layer_1" xmlns="http://www.w3.org/2000/svg" xmlns:xlink="http://www.w3.org/1999/xlink" 
	 viewBox="0 0 512 512" xml:space="preserve">
<path style="fill:#FFB657;" d="M198.766,222.7c0,0-2.065,19.821-0.834,21.053c1.231,1.231,6.891,4.678,8.246,4.678
	s11.27-3.797,12.427-6.393c0.996-2.234,0.267-7.876-2.561-11.27c-3.247-3.897-2.827-10.745-2.827-10.745L198.766,222.7z"/>
<g>
	<path style="fill:#884D01;" d="M221.661,444.23c0,0-33.545,32.772-26.266,37.35c10.134,6.376,51.327-19.937,51.327-22.048
		c0-2.112-2.917-22.622-2.917-22.622L221.661,444.23z"/>
	<path style="fill:#884D01;" d="M267.13,469.445c0,0-32.38,35.34-23.014,41.615c9.947,6.664,48.073-24.202,48.073-26.313
		c0-2.112-2.917-22.622-2.917-22.622L267.13,469.445z"/>
</g>
<path style="fill:#013F8A;" d="M214.472,241.04l-0.743,206.769c0,0-0.476,6.064,15.692,6.064s17.022-7.734,17.022-7.734
	l4.307-149.786l0.786,0.112L260,473.56c0,0-1,4.747,15.168,4.747c16.169,0,17.022-7.734,17.022-7.734l1.563-222.534L214.472,241.04z
	"/>
<g>
	<path style="fill:#AD2201;" d="M225.874,84.131c-2.375-0.252-16.43,2.482-19.143,24.047c-0.978,7.771-5.756,35.313-6.771,61.264
		c-1.163,29.734-3.879,51.541-3.879,51.541c0,6.787,14.629,13.581,19.606,8.605c0.746-0.746,9.245-36.523,9.594-66.882
		C225.729,123.877,242.404,85.881,225.874,84.131z"/>
	<path style="fill:#AD2201;" d="M211.968,239.515c0,0-2.098-34.78-1.567-66.829c0.445-26.893-2.234-53.442-2.112-60.135
		c0.303-16.589,10.74-28.331,16.842-28.435c0,0,42.69,3.514,78.345,31.247c0,0-3.749,138.964-8.492,140.572
		C255.88,269.203,213.551,246.756,211.968,239.515z"/>
</g>
<path style="fill:#891D00;" d="M210.4,172.686c0.297-17.939-0.796-35.716-1.52-47.558l0.279,106.061
	c0.821,0.105,1.617,0.123,2.376,0.068C210.952,219.055,210.027,195.205,210.4,172.686z"/>
<path style="fill:#FFB657;" d="M241.617,76.207c0,0-2.245,16.966-3.318,26.288c-0.793,6.896,11.392,11.341,20.705,8.412
	c9.313-2.929,13.076-9.817,13.076-9.817c-4.393-14.794-4.107-36.24-4.107-36.24L241.617,76.207z"/>
<g>
	<path style="fill:#CD2A01;" d="M270.906,96.54c0,0,0.465,1.519-0.65,2.635c-2.606,2.606-11.569,8.508-22.497,11.198l5.003,16.572
		c0,0,22.422-16.814,22.051-24.446c-0.306-6.298-4.651-9.72-4.651-9.72L270.906,96.54z"/>
	<path style="fill:#CD2A01;" d="M239.095,95.87c0,0-3.119,3.655-5.218,10.653c-2.099,6.998,2.609,16.793,2.609,16.793l6.783-14.016
		c0,0-4.369-3.276-4.67-5.379C238.3,101.817,239.095,95.87,239.095,95.87z"/>
</g>
<path style="fill:#FEC377;" d="M219.433,48.324c0,0,2.125,31.87,9.788,37.562c7.663,5.693,31.681,0.235,45.04-22.507
	c11.145-18.972,6.494-56.184-17.461-60.13C228.819-1.358,217.754,19.803,219.433,48.324z"/>
<g>
	<path style="fill:#DDB201;" d="M256.803,25.783c-6.55,2.821-13.949,3.008-21.039,2.226c-10.188-1.124-21.323-5.137-25.53-14.483
		c2.513,1.383,5.7,0.863,8.247-0.456c2.547-1.319,4.649-3.337,6.92-5.088c8.995-6.927,21.143-9.579,32.207-7.033
		c5.29,1.217,15.746,4.824,14.248,11.508C270.547,18.304,261.996,23.546,256.803,25.783z"/>
	<path style="fill:#DDB201;" d="M261.276,21.016c-2.399,6.896,1.032,14.266,3.063,21.28c1.728,5.972,0.969,12.233,0.637,18.44
		c0.956-4.224,1.307-5.215,2.95-9.223c1.239-3.024,3.059-6.215,5.424-6.218c2.601-0.004,2.584,3.121,2.591,5.722
		c0.023,7.422-2.916,12.72-6.443,19.251c7.418-6.087,14.256-15.196,15.534-24.707c1.28-9.52-0.675-20.182-5.643-28.466
		c-2.157-3.596-4.967-6.958-9.356-5.218C266.326,13.347,262.572,17.289,261.276,21.016z"/>
</g>
<path style="fill:#FFB657;" d="M294.444,269.99c0,0-0.37,12.125-0.029,14.437c0.341,2.312,2.837,4.61,2.837,4.61
	s-0.226,5.603,1.946,7.216c2.171,1.613,14.754-4.499,16.686-6.48c2.714-2.785-0.614-22.852-0.614-22.852
	S297.587,259.861,294.444,269.99z"/>
<path style="fill:#AD2201;" d="M303.476,115.364c0,0-13.276,3.15-13.907,18.952c-0.632,15.801,3.761,30.469,2.36,81.904
	c-1.251,45.942,1.328,55.78,1.328,55.78s9.413,8.853,24.349-2.608c0,0,0.101-73.055-0.055-82.373
	C316.575,128.977,313.975,121.694,303.476,115.364z"/>
<path style="fill:#891D00;" d="M291.928,216.22c0.901-33.102-0.596-50.967-1.61-63.716l-0.001-0.009l-1.91,105.334
	c1.166-0.28,2.332-0.591,3.496-0.929C291.554,248.395,291.404,235.493,291.928,216.22z"/>
<path style="fill:#FEC377;" d="M264.976,61.456c0,0,2.501-17.574,7.707-17.807c3.672-0.164,5.269,7.421,2.571,13.252
	c-2.698,5.831-10.279,11.271-10.279,11.271V61.456z"/>
<polygon style="fill:#891D00;" points="244.779,110.352 241.12,255.926 242.104,256.213 245.69,110.686 "/>
</svg>