<?xml version="1.0" encoding="iso-8859-1"?>
<!-- Uploaded to: SVG Repo, www.svgrepo.com, Generator: SVG Repo Mixer Tools -->
<svg height="800px" width="800px" version="1.1" id="Layer_1" xmlns="http://www.w3.org/2000/svg" xmlns:xlink="http://www.w3.org/1999/xlink" 
	 viewBox="0 0 512 512" xml:space="preserve">
<g>
	<path style="fill:#643A00;" d="M224.357,450.489c0,0-27.989,28.076-22.27,31.673c7.963,5.009,40.329-15.665,40.329-17.325
		c0-1.659-2.293-17.774-2.293-17.774L224.357,450.489z"/>
	<path style="fill:#643A00;" d="M267.336,476.237c0,0-27.074,30.093-19.713,35.024c7.816,5.236,37.773-19.016,37.773-20.675
		c0-1.659-2.293-17.774-2.293-17.774L267.336,476.237z"/>
</g>
<g>
	<path style="fill:#FFB657;" d="M302.653,284.387c0.105-27.215-15.65-46.634-15.65-46.634l-71.954-6.369l9.361,218.575
		c0,0-0.999,5.038,7.254,5.872c7.835,0.792,8.498-3.225,8.498-3.225s10.915-67.164,2.331-109.307c0,0,7.505-26.337,12.857-50.506
		l3.003,0.7l8.09,183.265c0,0-0.999,6.525,7.254,7.359c7.836,0.792,8.528-3.921,8.528-3.921s10.886-69.962,2.302-112.106
		C284.526,368.092,302.575,304.753,302.653,284.387z"/>
	<path style="fill:#FFB657;" d="M302.653,284.387c0.105-27.215-15.65-46.634-15.65-46.634l-71.954-6.369l9.361,218.575
		c0,0-0.999-0.199,7.254,0.636c7.835,0.792,8.498,2.012,8.498,2.012s10.915-67.164,2.331-109.307c0,0,7.505-26.337,12.857-50.506
		l3.003,0.7l8.09,183.265c0,0-0.999,1.289,7.254,2.123c7.836,0.792,8.528,1.317,8.528,1.317s10.886-69.962,2.302-112.106
		C284.526,368.092,302.575,304.753,302.653,284.387z"/>
</g>
<g>
	<path style="fill:#643A00;" d="M223.454,439.874l0.431,10.053c-0.051,0.348-0.199,1.889,0.924,3.404
		c1.238,1.673,3.528,2.689,6.803,3.02c0.696,0.071,1.367,0.107,1.993,0.107c6.38,0,7.049-3.612,7.075-3.768
		c0.024-0.146,0.55-4.285,1.27-9.765C235.248,444.02,228.544,443.564,223.454,439.874z"/>
	<path style="fill:#643A00;" d="M265.528,467.682l0.398,9c-0.017,0.11-0.391,2.708,1.347,4.953c1.318,1.701,3.461,2.713,6.372,3.006
		c0.605,0.062,1.193,0.093,1.748,0.093c0,0,0,0,0.001,0c6.618,0,7.343-4.413,7.349-4.453c0.024-0.157,0.581-3.795,1.333-9.803
		C277.362,471.352,270.383,470.99,265.528,467.682z"/>
</g>
<path style="fill:#CBA400;" d="M252.23,152.04c0,0,29.274-13.266,35.645-92.822c0.767-9.575,1.1-17.279,0.58-23.956
	c-1.214-15.563-39.068-46.423-63.394-9.224c-5.406,8.268-1.795,19.244-2.633,28.684C215.901,128.302,252.23,152.04,252.23,152.04z"
	/>
<path style="fill:#FFB657;" d="M206.738,227.706c0,0-2.803,21.981-1.722,23.062c1.081,1.081,6.053,4.11,7.244,4.11
	c1.191,0,9.901-3.336,10.916-5.616c0.875-1.962,0.235-6.919-2.25-9.901c-2.853-3.423-2.484-9.44-2.484-9.44L206.738,227.706z"/>
<path style="fill:#1D1D1F;" d="M289.404,236.793l-1.739-2.143l-70.797,1.097l-2.008,84.481c10.573,5.021,23.973,5.52,35.889,5.568
	c1.512-5.764,3.194-12.369,4.834-19.187l0.809,23.724c12.781,5.767,27.404,5.979,40.98,2.073
	c4.284-17.714,8.346-37.085,8.383-46.988C305.862,257.405,290.076,237.62,289.404,236.793z"/>
<g>
	<path style="fill:#884D01;" d="M224.464,88.079c0,0-18.504-2.109-15.76,54.808c2.76,57.243-3.231,85.727-3.231,85.727
		s1.241,4.234,8.511,4.234c7.269,0,8.479-2.722,8.479-2.722s2.653-66.442,2.975-69.663
		C226.695,147.876,238.452,91.221,224.464,88.079z"/>
	<path style="fill:#884D01;" d="M215.045,244.367c0,0,3.257-29.133,3.788-61.263c0.193-11.646-11.075-25.188-11.075-39.273
		c0-14.668,5.432-36.048,16.706-55.753c0,0,43.885-12.02,77.791,40.935c0,0-17.746,23.138-19.756,62.707
		c-1.014,19.958,9.64,52.82,9.64,52.82C258.526,271.151,220.498,269.315,215.045,244.367z"/>
</g>
<path style="fill:#643A00;" d="M216.262,231.633l1.47-20.297c0.51-8.605,0.937-18.272,1.101-28.231
	c0.152-9.135-6.747-19.436-9.729-30.251c0.08,2.484,0.145,4.913,0.195,7.279c2.739,6.411,5.391,12.747,6.791,16.449
	c3.651,9.655-5.483,55.806-5.5,55.894c0.953,0.229,2.071,0.372,3.394,0.372c0.262,0,0.501-0.011,0.747-0.018l1.435-0.074
	C216.196,232.384,216.229,232.018,216.262,231.633z"/>
<path style="fill:#FFB657;" d="M241.814,81.501c0,0-1.207,17.19-3.326,26.355c-2.931,12.676,3.266,19.627,12.604,16.69
	c9.337-2.936,21.264-18.098,21.264-18.098c-4.404-14.833-4.118-36.333-4.118-36.333L241.814,81.501z"/>
<path style="fill:#FEC377;" d="M220.852,50.919c0,0,2.236,32.375,10.451,38.147c8.215,5.772,36.779-3.419,48.361-22.929
	c11.582-19.51,7.17-60.026-18.528-64C231.119-2.505,219.092,21.946,220.852,50.919z"/>
<path style="fill:#CBA400;" d="M235.449,3.929c-34.201,14.982-13.125,82.237-13.125,82.237s-3.676-33.62,8.971-48.103
	c9.533-10.916,20.937-15.971,28.875-14.675c-0.987,4.361-2.622,16.353,5.824,27.018c8.775,11.08,1.068,28.839-8.42,39.316
	c3.665-1.878,6.937-4.442,9.968-7.228c8.158-7.496,14.768-16.823,18.31-27.32s3.624-22.095,0.167-32.621
	C280.107,4.549,258.683-6.25,235.449,3.929z"/>
<path style="fill:#FFB657;" d="M289.932,277.04c0,0-2.874,12.524-2.532,14.843c0.342,2.319,2.844,4.623,2.844,4.623
	s-0.226,5.616,1.951,7.234c2.177,1.618,14.792-4.511,16.728-6.497c2.721-2.792-0.617-22.911-0.617-22.911
	S293.082,266.884,289.932,277.04z"/>
<path style="fill:#884D01;" d="M296.599,123.457c-5.507-1.453-13.425,2.087-14.058,17.929c-0.633,15.842,7.704,27.048,6.301,78.615
	c-1.254,46.06-0.325,55.736-0.325,55.736s7.159,12.564,22.134,1.073c0,0,0.102-73.242-0.055-82.585
	C309.617,136.034,302.614,125.046,296.599,123.457z"/>
<path style="fill:#A66206;" d="M274.364,105.853c-1.708-5.752-3.024-18.946-4.596-18.31c-8.106,8.474-18.937,12.705-29.673,7.647
	c-2.34-1.189-2.87,8.835-3.648,12.195c-1.54,6.659-0.793,12.331,2.102,15.974c2.026,2.548,5.04,3.951,8.487,3.951h0.001
	c1.493,0,3.068-0.257,4.681-0.764c9.842-3.094,21.779-18.161,22.284-18.801l0.67-0.852L274.364,105.853z"/>
</svg>