<?xml version="1.0" encoding="iso-8859-1"?>
<!-- Uploaded to: SVG Repo, www.svgrepo.com, Generator: SVG Repo Mixer Tools -->
<svg height="800px" width="800px" version="1.1" id="Layer_1" xmlns="http://www.w3.org/2000/svg" xmlns:xlink="http://www.w3.org/1999/xlink" 
	 viewBox="0 0 511.999 511.999" xml:space="preserve">
<g>
	<path style="fill:#FFB657;" d="M198.237,221.656c0,0-2.072,19.893-0.836,21.129c1.236,1.236,6.916,4.694,8.277,4.694
		c1.36,0,11.311-3.811,12.472-6.416c0.998-2.242,0.268-7.905-2.57-11.31c-3.259-3.911-2.838-10.784-2.838-10.784L198.237,221.656z"
		/>
	<path style="fill:#FFB657;" d="M225.443,82.588c-2.383-0.252-16.488,2.491-19.212,24.134c-0.982,7.799-3.128,38.091-4.146,64.134
		c-1.167,29.841-3.848,50.799-3.848,50.799c0,6.81,11.987,11.909,16.982,6.913c0.748-0.748,0.931-29.025,6.966-69.786
		C227.894,120.231,242.033,84.344,225.443,82.588z"/>
</g>
<g>
	<path style="fill:#FF3502;" d="M221.216,443.985c0,0-33.665,32.89-26.362,37.485c10.172,6.399,51.512-20.009,51.512-22.128
		s-2.928-22.702-2.928-22.702L221.216,443.985z"/>
	<path style="fill:#FF3502;" d="M266.848,469.291c0,0-32.497,35.467-23.096,41.765c9.983,6.688,48.247-24.289,48.247-26.408
		c0-2.119-2.928-22.702-2.928-22.702L266.848,469.291z"/>
</g>
<path style="fill:#FFB657;" d="M214.001,240.063l6.092,205.036c0,0,1.968,4.73,12.826,4.73c9.128,0,11.257-7.944,11.257-7.944
	l6.236-146.309l0.788,0.113l13.933,175.523c0,0,3.206,6.093,11.14,5.62c17.084-1.018,13.704-8.432,13.704-8.432l3.594-221.311
	L214.001,240.063z"/>
<g>
	<path style="fill:#E0E0E2;" d="M219.78,434.575l0.313,10.524c0,0,1.968,4.73,12.826,4.73c9.128,0,11.257-7.944,11.257-7.944
		l0.491-11.505C237.511,435.712,228.725,437.599,219.78,434.575z"/>
	<path style="fill:#E0E0E2;" d="M290.177,455.892c-7.69,4.774-16.778,6.952-25.975,3.619l0.928,11.701c0,0,3.207,6.093,11.14,5.62
		c17.084-1.018,13.704-8.432,13.704-8.432L290.177,455.892z"/>
</g>
<path style="fill:#891D00;" d="M291.078,350.175c0.954-0.409,1.96-0.818,2.993-1.24l1.648-101.468l-83.87-7.404l2.879,96.92
	c10.627,4.676,22.097,8.418,33.656,4.836l1.843-43.242l0.831,0.118l3.754,47.29C265.475,352.737,279.165,354.147,291.078,350.175z"
	/>
<path style="fill:#FECE00;" d="M211.487,238.532c0,0-2.105-34.905-1.573-67.069c0.447-26.99-2.243-53.635-2.12-60.351
	c0.303-16.648,10.779-28.434,16.903-28.538c0,0,42.844,3.527,78.628,31.36c0,0-3.763,139.465-8.523,141.08
	C255.558,268.327,213.076,245.8,211.487,238.532z"/>
<path style="fill:#FFB657;" d="M241.244,74.635c0,0-2.254,17.027-3.33,26.383c-0.796,6.921,11.433,11.381,20.78,8.442
	c9.346-2.94,13.123-9.852,13.123-9.852c-4.409-14.847-4.122-36.37-4.122-36.37L241.244,74.635z"/>
<path style="fill:#FEC377;" d="M218.979,46.652c0,0,2.134,31.986,9.824,37.698s31.795,0.235,45.201-22.588
	c11.185-19.041,6.517-56.387-17.524-60.347C228.401-3.209,217.295,18.028,218.979,46.652z"/>
<path style="fill:#3E3D43;" d="M272.412,8.749c-3.085-3.246-6.987-5.758-11.8-7.195c-10.141-3.029-23.493-1.756-31.979,4.915
	c-8.989,7.067-11.767,19.001-11.943,29.91c4.498,0.862,7.064,4.959,19.621-2.628c9.229-5.576,15.436-9.773,27.944,1.374
	l-0.233,27.059c0-0.002,2.504-17.59,7.715-17.824c3.675-0.164,5.274,7.428,2.573,13.265c-1.328,2.87-3.837,5.643-6.046,7.722
	c-0.13,1.169-0.376,3.258-0.85,7.013c1.524-0.707,6.835-7.274,8.971-11.435C284.025,46.051,284.643,21.621,272.412,8.749z"/>
<g>
	<path style="fill:#FFB657;" d="M294.262,269.117c0,0-0.372,12.168-0.029,14.49c0.342,2.321,2.847,4.626,2.847,4.626
		s-0.226,5.623,1.953,7.242c2.179,1.619,14.808-4.516,16.746-6.504c2.724-2.795-0.616-22.935-0.616-22.935
		S297.416,258.951,294.262,269.117z"/>
	<path style="fill:#FFB657;" d="M303.326,113.933c0,0-13.324,3.162-13.958,19.02c-0.634,15.858,3.982,30.018,4.72,82.2
		c0.652,46.12,0.175,53.964,0.175,53.964s5.909,8.422,20.899-3.081c0,0,0.323-70.837,0.166-80.19
		C314.348,127.595,313.863,120.286,303.326,113.933z"/>
</g>
<path style="fill:#FEC377;" d="M264.687,60.878c0,0,2.51-17.637,7.736-17.872c3.685-0.164,5.289,7.448,2.581,13.301
	c-2.708,5.853-10.316,11.311-10.316,11.311V60.878z"/>
<g>
	<path style="fill:#FECE00;" d="M288.204,132.953c0,15.709,0,40.472,0,40.472s23.96,3.212,29.741-2.569
		c0,0,3.293-48.952-14.618-56.923C296.927,111.086,288.204,124.593,288.204,132.953z"/>
	<path style="fill:#FECE00;" d="M214.162,134.889c-11.866-4.18-11.156-11.156-11.156-11.156
		c0.921-42.893,19.862-40.826,19.862-40.826L214.162,134.889z"/>
</g>
</svg>